<svg width="24" height="24" viewBox="0 0 24 24" fill="none" xmlns="http://www.w3.org/2000/svg">
<path fill-rule="evenodd" clip-rule="evenodd" d="M14.4569 6.5543C15.0402 5.8783 15.4333 4.93678 15.3257 4C14.4852 4.032 13.4684 4.53692 12.8657 5.21211C12.3245 5.8113 11.8521 6.76872 11.9791 7.68711C12.9167 7.7567 13.8736 7.23108 14.4569 6.5543ZM16.5594 12.5C16.5828 14.9216 18.7759 15.7271 18.8002 15.7375C18.7824 15.7943 18.4499 16.8853 17.645 18.0133C16.9485 18.9877 16.2261 19.9581 15.0879 19.9789C13.9699 19.9989 13.6099 19.3438 12.331 19.3438C11.0528 19.3438 10.6532 19.958 9.59507 19.9988C8.49651 20.038 7.65924 18.9446 6.95787 17.9734C5.52278 15.9871 4.42665 12.3601 5.89895 9.91211C6.63025 8.69693 7.93671 7.92623 9.35562 7.90703C10.434 7.88703 11.4524 8.60234 12.1117 8.60234C12.771 8.60234 14.0087 7.74235 15.3095 7.86875C15.854 7.89035 17.3829 8.07908 18.3642 9.45586C18.2849 9.50306 16.54 10.476 16.5594 12.5Z" fill="white"/>
</svg>
