<svg width="24" height="24" viewBox="0 0 24 24" fill="none" xmlns="http://www.w3.org/2000/svg">
<g clip-path="url(#clip0_1161_97872)">
<path d="M6.35943 4C5.44293 4 5.10693 4.3385 5.10693 5.2525V16.294C5.10693 16.3985 5.11243 16.4945 5.12043 16.5835C5.14393 16.784 5.14393 16.9795 5.33093 17.198C5.34893 17.224 5.53693 17.362 5.53693 17.362C5.63843 17.4115 5.70843 17.448 5.82293 17.4945L11.3804 19.8225C11.6669 19.953 11.7899 20.008 11.9979 20H12.0004C12.2109 20.008 12.3339 19.9535 12.6204 19.8225L18.1749 17.4945C18.2924 17.448 18.3594 17.411 18.4634 17.362C18.4634 17.362 18.6514 17.2185 18.6694 17.198C18.8569 16.9795 18.8569 16.784 18.8799 16.5835C18.8879 16.495 18.8934 16.399 18.8934 16.297V5.253C18.8934 4.339 18.5549 4.0005 17.6409 4.0005L6.35943 4ZM15.2634 6.0725H15.7159C16.4714 6.0725 16.8414 6.44 16.8414 7.206V8.4585H15.9249V7.255C15.9249 7.0105 15.8129 6.8985 15.5754 6.8985H15.4194C15.1749 6.8985 15.0629 7.0105 15.0629 7.255V11.1295C15.0629 11.374 15.1749 11.486 15.4194 11.486H15.5939C15.8279 11.486 15.9399 11.374 15.9399 11.1295V9.744H16.8564V11.174C16.8564 11.9365 16.4819 12.312 15.7239 12.312H15.2634C14.5029 12.312 14.1299 11.934 14.1299 11.174V7.2125C14.1299 6.45 14.5024 6.0725 15.2634 6.0725ZM7.13793 6.1255H9.21343V6.977H8.06993V8.711H9.17193V9.5605H8.06993V11.409H9.22943V12.261H7.13793V6.1255ZM9.68193 6.1255H11.1459C11.9034 6.1255 12.2784 6.503 12.2784 7.2655V8.896C12.2784 9.6585 11.9029 10.034 11.1459 10.034H10.6174V12.2605H9.68193V6.1255ZM12.7004 6.1255H13.6324V12.261H12.7004V6.1255ZM10.6144 6.9505V9.2105H10.9999C11.2344 9.2105 11.3464 9.0965 11.3464 8.851V7.3095C11.3464 7.065 11.2344 6.95 10.9999 6.95L10.6144 6.9505ZM8.04393 13.7185H8.18193L8.21343 13.724H8.26343L8.28943 13.732H8.31543L8.33893 13.7395L8.36493 13.745L8.38543 13.7505L8.43193 13.761L8.45843 13.7685L8.47643 13.774L8.49693 13.782L8.52293 13.79L8.54093 13.7975L8.56743 13.808L8.59093 13.8185L8.61143 13.831L8.63493 13.8415L8.65293 13.854L8.67943 13.8675L8.69993 13.88L8.72043 13.8905L8.74093 13.906L8.76243 13.9195L8.78043 13.935L8.84293 13.9825L8.82693 14.003L8.80893 14.021L8.79293 14.0395L8.77493 14.06L8.76243 14.078L8.74643 14.0965L8.72843 14.1145L8.71243 14.135L8.69993 14.153L8.68143 14.1745L8.66593 14.1925L8.64793 14.213L8.63193 14.2315L8.61943 14.252L8.60093 14.27L8.58543 14.2915L8.56743 14.3095L8.55143 14.3275L8.53343 14.315L8.51293 14.2965L8.49143 14.284L8.45293 14.258L8.42943 14.2445L8.40793 14.232L8.38443 14.2185L8.36643 14.208L8.34593 14.198L8.30393 14.182L8.27793 14.1775L8.25743 14.172L8.23393 14.1665L8.20743 14.161L8.18143 14.1585H8.15543L8.12493 14.153H8.07493L8.04893 14.1555H8.02293L7.99693 14.1635L7.97643 14.169L7.95293 14.177L7.92943 14.1815L7.90793 14.192L7.88193 14.2025L7.84593 14.2285L7.82443 14.241L7.80643 14.257L7.78843 14.2695L7.76993 14.2855L7.75743 14.3035L7.73593 14.3215L7.70993 14.358L7.69743 14.3785L7.68693 14.402L7.67443 14.4205L7.66093 14.444L7.65293 14.4675L7.64293 14.488L7.63493 14.514L7.63243 14.54L7.62493 14.564L7.61943 14.59V14.616L7.61693 14.642V14.702L7.61943 14.728V14.7485L7.62193 14.7745L7.62643 14.798L7.63443 14.8185L7.63693 14.845L7.64493 14.8655L7.65243 14.8835L7.66293 14.9095L7.67643 14.9355L7.68643 14.954L7.71243 14.9955L7.72843 15.016L7.74093 15.0345L7.76243 15.05L7.77493 15.068L7.79293 15.084L7.83493 15.1155L7.85293 15.1255L7.87343 15.139L7.89743 15.1495L7.92343 15.1595L7.94143 15.17L7.99343 15.1855L8.01693 15.188L8.04293 15.196L8.06893 15.1985H8.18093L8.21243 15.196H8.23593L8.26243 15.1855L8.28843 15.183L8.31443 15.1755L8.33493 15.17L8.35843 15.1595L8.37893 15.1495L8.40243 15.139L8.41843 15.1285L8.43893 15.116V14.884H8.07143V14.512H8.90193V15.3455L8.88393 15.358L8.86593 15.3735L8.84743 15.387L8.82693 15.4025L8.80643 15.413L8.78843 15.429L8.74643 15.455L8.72043 15.4675L8.67893 15.4935L8.65243 15.504L8.63193 15.514L8.60843 15.5245L8.55643 15.545L8.53593 15.5555L8.48843 15.571L8.46493 15.5765L8.44143 15.5845L8.41543 15.5925L8.39493 15.597L8.31693 15.613L8.29293 15.6155L8.24093 15.621L8.21243 15.6235L8.18643 15.6255L8.15793 15.628H8.02793L8.00193 15.6235H7.97593L7.94993 15.618H7.92643L7.90043 15.61L7.82443 15.5945L7.80393 15.5865L7.78043 15.584L7.75443 15.5735L7.70693 15.558L7.66043 15.5375L7.63443 15.527L7.61643 15.5165L7.59043 15.5065L7.57193 15.4905L7.54593 15.4805L7.53043 15.467L7.50993 15.4545L7.46793 15.423L7.44743 15.4095L7.43143 15.394L7.41093 15.378L7.37693 15.3445L7.35893 15.3285L7.34343 15.3105L7.32493 15.292L7.31243 15.2715L7.29643 15.256L7.28393 15.2345L7.26793 15.214L7.25543 15.196L7.24193 15.1755L7.22943 15.1515L7.21893 15.131L7.20843 15.1075L7.19843 15.087L7.17793 15.0395L7.16993 15.0215L7.15943 14.998L7.15393 14.9745L7.14943 14.954L7.14393 14.928L7.13593 14.904L7.13043 14.878L7.12793 14.8575L7.12343 14.8315L7.11793 14.785L7.11243 14.733V14.595L7.11793 14.5685V14.5425L7.12593 14.5165V14.4905L7.13343 14.467L7.14143 14.441L7.15193 14.3945L7.15943 14.3685L7.16743 14.345L7.19893 14.2745L7.20893 14.254L7.21943 14.2305L7.23293 14.2065L7.24293 14.186L7.25643 14.168L7.28243 14.126L7.29793 14.1055L7.31393 14.0875L7.32643 14.067L7.36043 14.033L7.37593 14.0145L7.39443 13.9965L7.40993 13.9785L7.43143 13.9625L7.46743 13.931L7.48793 13.9155L7.50943 13.902L7.52743 13.8865L7.54793 13.873L7.56943 13.863L7.59293 13.8495L7.61893 13.837L7.63693 13.8235L7.66293 13.8135L7.68643 13.803L7.70993 13.7905L7.73143 13.785L7.75743 13.777L7.77793 13.7665L7.80143 13.762L7.82493 13.754L7.85093 13.7485L7.87243 13.7405L7.89843 13.735H7.92443L7.94793 13.7275H7.97393L7.99993 13.722H8.02343L8.04393 13.7185ZM16.0364 13.724H16.1744L16.2059 13.7295H16.2554L16.2814 13.737H16.3099L16.3359 13.745L16.3824 13.7555L16.4084 13.761L16.4319 13.7655L16.4584 13.7735L16.4819 13.7815L16.5024 13.787L16.5259 13.7945L16.5519 13.8025L16.5724 13.813L16.5984 13.823L16.6224 13.8335L16.6459 13.847L16.6639 13.857L16.6874 13.8705L16.7109 13.8805L16.7324 13.894L16.7559 13.9095L16.7739 13.923L16.8159 13.9545L16.8364 13.967L16.8204 13.9875L16.8079 14.009L16.7924 14.027L16.7764 14.0475L16.7639 14.071L16.7504 14.0925L16.7349 14.1105L16.7189 14.131L16.7064 14.1525L16.6904 14.173L16.6779 14.191L16.6619 14.2115L16.6494 14.2355L16.6334 14.256L16.6179 14.274L16.6019 14.2945L16.5894 14.316L16.5689 14.3L16.5449 14.2875L16.5269 14.274L16.5064 14.2615L16.4829 14.251L16.4614 14.2375L16.4379 14.2275L16.4199 14.217L16.3939 14.207L16.3754 14.1965L16.3549 14.1885L16.3084 14.173L16.2564 14.157L16.1784 14.1415L16.1524 14.139L16.1049 14.1335H16.0504L16.0219 14.139L15.9959 14.1445L15.9724 14.15L15.9519 14.16L15.9334 14.1705L15.9129 14.1885L15.8974 14.212L15.8869 14.236V14.298L15.9004 14.3265L15.9104 14.3425L15.9264 14.358L15.9524 14.3715L15.9729 14.384L15.9964 14.3945L16.0224 14.4045L16.0564 14.4125L16.0744 14.4205L16.0959 14.426L16.1219 14.4315L16.1424 14.439L16.1659 14.4445L16.1944 14.4525L16.2204 14.4605L16.2489 14.468L16.2774 14.4735L16.3009 14.4815L16.3294 14.489L16.3554 14.4945L16.3789 14.5L16.4574 14.5235L16.4779 14.5315L16.5039 14.5395L16.5274 14.5495L16.5534 14.563L16.6054 14.5835L16.6289 14.597L16.6709 14.623L16.7094 14.6515L16.7334 14.667L16.7514 14.685L16.7694 14.7065L16.7879 14.7245L16.8004 14.7425L16.8189 14.7685L16.8314 14.787L16.8419 14.813L16.8519 14.8285L16.8599 14.8545L16.8679 14.876L16.8734 14.8995L16.8834 14.9515L16.8859 14.9775L16.8884 15.001V15.0635L16.8859 15.092L16.8804 15.144L16.8749 15.17L16.8674 15.1935L16.8619 15.2195L16.8539 15.2455L16.8464 15.269L16.8359 15.2875L16.8254 15.311L16.8129 15.3315L16.7969 15.35L16.7709 15.3915L16.7394 15.428L16.7214 15.4405L16.7009 15.459L16.6849 15.4745L16.6644 15.49L16.6439 15.5005L16.6234 15.5165L16.5994 15.529L16.5529 15.5525L16.5269 15.563L16.5034 15.573L16.4774 15.581L16.4539 15.589L16.4324 15.5945L16.3804 15.6045L16.3624 15.61L16.3364 15.6155H16.3104L16.2869 15.621H16.2609L16.2349 15.6265H16.0494L15.9714 15.6185L15.9454 15.613L15.9219 15.6105L15.8699 15.6005L15.8414 15.595L15.8179 15.5895L15.7919 15.5815L15.7654 15.576L15.7419 15.5685L15.7159 15.5605L15.6899 15.55L15.6694 15.5425L15.6434 15.5345L15.6174 15.524L15.5989 15.514L15.5729 15.506L15.5524 15.4925L15.5264 15.4825L15.5059 15.469L15.4874 15.4565L15.4614 15.443L15.4434 15.433L15.4229 15.417L15.4024 15.4045L15.3809 15.3885L15.3629 15.373L15.3424 15.357L15.3239 15.3445L15.3034 15.326L15.3194 15.3055L15.3374 15.2875L15.3529 15.269L15.3714 15.2485L15.3839 15.2305L15.3999 15.21L15.4179 15.1915L15.4334 15.1735L15.4519 15.153L15.4644 15.1345L15.4829 15.1165L15.4984 15.096L15.5144 15.0775L15.5324 15.057L15.5449 15.039L15.5634 15.0205L15.5814 15L15.5994 15.016L15.6234 15.0315L15.6414 15.047L15.6674 15.0605L15.6854 15.074L15.7089 15.0895L15.7304 15.103L15.7539 15.113L15.7719 15.1265L15.7954 15.134L15.8214 15.1445L15.8429 15.155L15.8664 15.1625L15.8869 15.173L15.9129 15.181L15.9364 15.1885L15.9624 15.1965L15.9884 15.199L16.0124 15.207L16.0384 15.2095H16.0669L16.0904 15.217H16.2309L16.2544 15.2125L16.2804 15.207L16.2984 15.2045L16.3199 15.1965L16.3379 15.1865L16.3614 15.1705L16.3749 15.1525L16.3849 15.132L16.3929 15.108V15.048L16.3824 15.0245L16.3699 15.004L16.3539 14.9885L16.3304 14.9725L16.3124 14.965L16.2889 14.9545L16.2629 14.944L16.2344 14.9315L16.2159 14.926L16.1954 14.9205L16.1694 14.9125L16.1514 14.908L16.1254 14.9L16.0994 14.8975L16.0729 14.887L16.0469 14.8845L16.0184 14.877L15.9949 14.8715L15.9689 14.8635L15.9429 14.858L15.9169 14.8505L15.8934 14.8425L15.8674 14.837L15.8469 14.829L15.7994 14.8135L15.7734 14.803L15.7474 14.7955L15.6954 14.774L15.6719 14.7615L15.6459 14.748L15.6279 14.7355L15.6039 14.722L15.5859 14.7095L15.5624 14.696L15.5284 14.662L15.5104 14.6465L15.4789 14.61L15.4654 14.592L15.4554 14.574L15.4394 14.55L15.4319 14.532L15.4079 14.4695L15.4034 14.4435L15.3979 14.42V14.3965L15.3924 14.3705V14.264L15.3979 14.212L15.4034 14.1905L15.4079 14.167L15.4159 14.1465L15.4214 14.1205L15.4319 14.1025L15.4419 14.076L15.4524 14.0555L15.4624 14.0295L15.4759 14.0115L15.4939 13.991L15.5074 13.9695L15.5279 13.9515L15.5434 13.9335L15.5594 13.912L15.5829 13.894L15.5989 13.8805L15.6194 13.865L15.6609 13.839L15.6844 13.8255L15.7319 13.802L15.7524 13.7945L15.7759 13.7865L15.8019 13.776L15.8279 13.7685L15.8464 13.763L15.8699 13.7575L15.8904 13.752L15.9139 13.7465L15.9399 13.741L15.9919 13.7365L16.0159 13.734L16.0364 13.724ZM9.87743 13.742H10.3489L10.3704 13.7895L10.3804 13.81L10.3884 13.836L10.3989 13.8595L10.4064 13.88L10.4199 13.9035L10.4354 13.951L10.4489 13.9745L10.4694 14.021L10.4749 14.0415L10.5164 14.1355L10.5244 14.159L10.5349 14.1805L10.5474 14.204L10.5529 14.2275L10.5664 14.2535L10.5709 14.277L10.5949 14.3235L10.6049 14.342L10.6154 14.368L10.6234 14.394L10.6309 14.412L10.6444 14.438L10.6524 14.4595L10.6624 14.4855L10.6704 14.5035L10.6809 14.5295L10.7044 14.576L10.7119 14.5995L10.7174 14.6235L10.7279 14.647L10.7404 14.6675L10.7509 14.6935L10.7614 14.717L10.7689 14.7375L10.7904 14.785L10.7979 14.8085L10.8084 14.832L10.8164 14.8555L10.8264 14.876L10.8399 14.9L10.8499 14.9235L10.8604 14.944L10.8659 14.97L10.8864 15.0165L10.8969 15.038L10.9044 15.0615L10.9259 15.108L10.9384 15.134L10.9439 15.1545L10.9574 15.181L10.9619 15.199L10.9724 15.225L10.9859 15.251L10.9959 15.269L11.0039 15.295L11.0144 15.3165L11.0219 15.3425L11.0354 15.3605L11.0509 15.4125L11.0614 15.431L11.0714 15.457L11.0849 15.4775L11.0954 15.5035L11.0999 15.527L11.1079 15.5475L11.1184 15.571L11.1309 15.5925H10.6104L10.5979 15.571L10.5899 15.5475L10.5794 15.524L10.5694 15.498L10.5639 15.4775L10.5424 15.431L10.5349 15.4095L10.5144 15.363L10.5064 15.3425L10.4959 15.3165L10.4804 15.269L10.4699 15.2485H9.74593L9.73593 15.272L9.72793 15.2935L9.71743 15.3195L9.70743 15.343L9.70193 15.3635L9.69143 15.3895L9.68143 15.41L9.67343 15.4335L9.66293 15.455L9.65293 15.481L9.64493 15.499L9.63443 15.525L9.62693 15.551L9.61643 15.5695L9.60843 15.5955H9.09293L9.10043 15.5715L9.12193 15.525L9.12943 15.499L9.13743 15.4785L9.15093 15.455L9.16093 15.4315L9.17143 15.41L9.17693 15.3865L9.18693 15.3605L9.20043 15.34L9.21043 15.3165L9.22643 15.269L9.24993 15.2225L9.25793 15.199L9.26793 15.1785L9.27593 15.1545L9.30743 15.0845L9.31793 15.0585L9.32543 15.038L9.33343 15.0145L9.34693 14.993L9.35693 14.967L9.36493 14.9435L9.37293 14.923L9.38293 14.897L9.39643 14.8785L9.40443 14.8525L9.41443 14.832L9.42243 14.8085L9.43293 14.7825L9.44543 14.762L9.45343 14.736L9.46343 14.7175L9.47143 14.6915L9.48193 14.6655L9.49193 14.6475L9.50243 14.6215L9.51043 14.6L9.52043 14.574L9.52843 14.556L9.54193 14.53L9.55193 14.504L9.56243 14.4835L9.56793 14.46L9.57793 14.436L9.59143 14.4125L9.60143 14.392L9.60693 14.366L9.61743 14.3425L9.62793 14.321L9.64843 14.2745L9.65593 14.254L9.67743 14.202L9.68743 14.1835L9.69793 14.1575L9.70593 14.137L9.71343 14.111L9.72393 14.0875L9.73743 14.067L9.74743 14.041L9.75543 14.0225L9.76343 13.9965L9.77343 13.976L9.78693 13.9525L9.79493 13.9265L9.80243 13.905L9.81293 13.879L9.82293 13.861L9.83643 13.835L9.84443 13.809L9.85193 13.791L9.86243 13.765L9.87743 13.742ZM11.3414 13.7555H11.8569L11.8729 13.776L11.8989 13.818L11.9114 13.8415L11.9249 13.8595L11.9374 13.883L11.9509 13.9035L11.9634 13.9275L11.9769 13.948L11.9894 13.966L12.0029 13.9895L12.0154 14.011L12.0339 14.0315L12.0414 14.052L12.0574 14.0755L12.0699 14.097L12.0859 14.115L12.0964 14.1385L12.1089 14.159L12.1249 14.1805L12.1324 14.201L12.1509 14.2245L12.1894 14.287L12.1999 14.3075L12.2154 14.328L12.2289 14.3485L12.2414 14.3725L12.2809 14.4345L12.2934 14.4585L12.3069 14.479L12.3224 14.4585L12.3329 14.432L12.3484 14.414L12.3619 14.3905L12.3744 14.3725L12.3849 14.3465L12.4029 14.328L12.4164 14.3045L12.4269 14.2865L12.4394 14.265L12.4554 14.2415L12.4679 14.2235L12.4814 14.1975L12.4939 14.1795L12.5099 14.1555L12.5199 14.1375L12.5334 14.1115L12.5459 14.096L12.5594 14.0745L12.5749 14.0485L12.5884 14.0305L12.5984 14.007L12.6144 13.9885L12.6269 13.9625L12.6404 13.947L12.6559 13.9265L12.6694 13.9005L12.6819 13.882L12.6954 13.8585L12.7079 13.8405L12.7214 13.8145L12.7369 13.796L12.7474 13.7725L12.7609 13.7545H13.2844V15.614H12.7944V14.52L12.7819 14.5385L12.7659 14.5645L12.7534 14.58L12.7374 14.6005L12.7274 14.6265L12.7114 14.645L12.6989 14.663L12.6829 14.689L12.6569 14.7255L12.6414 14.746L12.6279 14.772L12.6124 14.7905L12.5989 14.8085L12.5889 14.8345L12.5729 14.8525L12.5604 14.871L12.5444 14.897L12.5319 14.915L12.5159 14.9355L12.5034 14.959L12.4929 14.9775L12.4774 14.998L12.4639 15.0215L12.4484 15.0395L12.4324 15.061L12.4224 15.0815L12.4089 15.105L12.3934 15.1235L12.3774 15.144L12.3674 15.17L12.3489 15.1855L12.3389 15.206L12.3229 15.2325L12.3104 15.2505H12.2999L12.2844 15.227L12.2709 15.2055L12.2584 15.182L12.2449 15.164L12.2294 15.1405L12.2159 15.12L12.2004 15.0985L12.1869 15.078L12.1744 15.0545L12.1609 15.0365L12.1429 15.0125L12.1324 14.992L12.1169 14.9685L12.1034 14.9505L12.0909 14.927L12.0749 14.9055L12.0624 14.8795L12.0464 14.8615L12.0339 14.838L12.0204 14.8165L12.0079 14.793L11.9919 14.775L11.9794 14.7515L11.9634 14.731L11.9534 14.7095L11.9374 14.689L11.9249 14.6655L11.9089 14.6475L11.8964 14.6235L11.8804 14.603L11.8704 14.5795L11.8519 14.5615L11.8419 14.5375L11.8259 14.517V15.6135H11.3444V13.772L11.3414 13.7555ZM13.6534 13.7555H15.1199V14.175H14.1404V14.4745H15.0204V14.8705H14.1404V15.188H15.1324V15.61H13.6559V13.7715L13.6534 13.7555ZM10.1064 14.3255L10.0984 14.349L10.0909 14.3705L10.0804 14.3965L10.0699 14.42L10.0624 14.4435L10.0409 14.49L10.0309 14.516L10.0229 14.5375L10.0149 14.5635L10.0049 14.5815L9.99693 14.6075L9.98643 14.6335L9.97643 14.652L9.96843 14.678L9.95843 14.6985L9.95043 14.7245L9.93693 14.748L9.93143 14.7685L9.92143 14.7945L9.91093 14.8185L9.90293 14.839L9.89293 14.865H10.3224L10.3124 14.839L10.3044 14.8155L10.2839 14.768L10.2759 14.7445L10.2654 14.724L10.2579 14.698L10.2474 14.6745L10.2394 14.651L10.2294 14.6295L10.2214 14.606L10.2109 14.58L10.2034 14.5595L10.1819 14.513L10.1774 14.489L10.1669 14.4655L10.1564 14.4395L10.1489 14.4215L10.1274 14.3695L10.1199 14.346L10.1064 14.3255ZM9.34143 17.8075H14.6819L11.9559 18.706L9.34143 17.8075Z" fill="white"/>
</g>
<defs>
<clipPath id="clip0_1161_97872">
<rect width="16" height="16" fill="white" transform="translate(4 4)"/>
</clipPath>
</defs>
</svg>
