<svg width="24" height="24" viewBox="0 0 24 24" fill="none" xmlns="http://www.w3.org/2000/svg">
<g clip-path="url(#clip0_1161_97888)">
<path d="M13.4505 20H15.901C18.151 20 20 18.151 20 15.901V8.099C20 5.849 18.151 4 15.901 4H13.401C13.3515 4 13.2995 4.0495 13.2995 4.099V19.901C13.2995 19.9505 13.349 20 13.4505 20ZM16.5 11.2005C17.401 11.2005 18.099 11.9505 18.099 12.7995C18.099 13.7005 17.349 14.3985 16.5 14.3985C15.599 14.3985 14.901 13.7005 14.901 12.7995C14.849 11.901 15.599 11.2005 16.5 11.2005ZM11.599 4H8.099C5.849 4 4 5.849 4 8.099V15.901C4 18.151 5.849 20 8.099 20H11.599C11.6485 20 11.7005 19.9505 11.7005 19.901V4.099C11.7005 4.0495 11.651 4 11.599 4ZM10.4505 18.7005H8.099C6.5495 18.7005 5.2995 17.4505 5.2995 15.901V8.099C5.2995 6.5495 6.5495 5.2995 8.099 5.2995H10.401L10.4505 18.7005ZM6.5 8.7995C6.5 9.6485 7.151 10.2995 8 10.2995C8.849 10.2995 9.5 9.6485 9.5 8.7995C9.5 7.9505 8.849 7.2995 8 7.2995C7.151 7.2995 6.5 7.9505 6.5 8.7995Z" fill="white"/>
</g>
<defs>
<clipPath id="clip0_1161_97888">
<rect width="16" height="16" fill="white" transform="translate(4 4)"/>
</clipPath>
</defs>
</svg>
