<svg width="24" height="24" viewBox="0 0 24 24" fill="none" xmlns="http://www.w3.org/2000/svg">
<path d="M5.63087 16.123C4.44387 15.7825 4.24737 15.081 4.78587 14.6735C5.17387 14.4185 5.61987 14.1965 6.09187 14.0295L6.13537 14.016L9.64387 12.758V14.203L7.12887 15.1225C6.68837 15.292 6.61337 15.5175 6.97937 15.6385C7.16187 15.685 7.37087 15.712 7.58637 15.712C7.89387 15.712 8.18837 15.6575 8.46087 15.558L8.44337 15.5635L9.65437 15.1225V16.4185C9.57937 16.437 9.49437 16.446 9.41087 16.464C9.02337 16.532 8.57737 16.571 8.12237 16.571C7.23337 16.571 6.37937 16.422 5.58337 16.148L5.63837 16.1645L5.63087 16.123ZM13.0244 16.271L16.9584 14.8495C17.4049 14.6885 17.4744 14.459 17.1119 14.3385C16.9304 14.294 16.7224 14.2685 16.5079 14.2685C16.1969 14.2685 15.8979 14.3225 15.6209 14.421L15.6394 14.4155L13.0119 15.3525V13.861L13.1619 13.808C13.6869 13.6335 14.3039 13.498 14.9404 13.4275L14.9819 13.4235C15.2159 13.3985 15.4869 13.3845 15.7614 13.3845C16.6999 13.3845 17.5999 13.55 18.4329 13.854L18.3789 13.8365C19.5334 14.212 19.6534 14.756 19.3634 15.131C19.0839 15.4095 18.7459 15.63 18.3694 15.772L18.3499 15.7785L13.0114 17.72V16.2855L13.0244 16.271ZM10.1154 6.12305V17.0865L12.5614 17.8745V8.67955C12.5614 8.24855 12.7514 7.96055 13.0574 8.06055C13.4549 8.17305 13.5324 8.56905 13.5324 9.00105V12.672C15.0574 13.4175 16.2579 12.6705 16.2579 10.7025C16.2579 8.68005 15.5544 7.78155 13.4849 7.06155C12.5924 6.73755 11.4649 6.41455 10.3114 6.15905L10.1169 6.12305H10.1154Z" fill="white"/>
</svg>
