<svg width="24" height="24" viewBox="0 0 24 24" fill="none" xmlns="http://www.w3.org/2000/svg">
<path d="M17.7549 8.22444L8.90409 5.85287C8.76184 5.8148 8.6103 5.83477 8.48278 5.90841C8.35526 5.98204 8.26221 6.10331 8.22409 6.24554L5.85239 15.0964C5.81431 15.2386 5.83428 15.3902 5.90792 15.5177C5.98155 15.6452 6.10282 15.7382 6.24505 15.7764L15.0959 18.1479C15.2381 18.186 15.3897 18.166 15.5172 18.0924C15.6447 18.0188 15.7378 17.8975 15.7759 17.7553L18.1475 8.90444C18.1855 8.7622 18.1656 8.61065 18.0919 8.48314C18.0183 8.35562 17.8971 8.26256 17.7549 8.22444Z" stroke="#C62828" stroke-width="1.5" stroke-linecap="round" stroke-linejoin="round"/>
<path d="M13.7731 10.8361L11.0462 10.1054C11.0245 10.0996 11.0018 10.0981 10.9795 10.1011C10.9573 10.104 10.9358 10.1113 10.9163 10.1225C10.8969 10.1338 10.8798 10.1487 10.8661 10.1665C10.8525 10.1844 10.8424 10.2047 10.8366 10.2264L10.1059 12.9533C10.1001 12.975 10.0986 12.9977 10.1016 13.02C10.1045 13.0422 10.1118 13.0637 10.123 13.0832C10.1342 13.1026 10.1492 13.1197 10.167 13.1334C10.1849 13.1471 10.2052 13.1571 10.2269 13.1629L12.9538 13.8936C12.9755 13.8994 12.9982 13.9009 13.0204 13.8979C13.0427 13.895 13.0642 13.8877 13.0837 13.8765C13.1031 13.8653 13.1202 13.8503 13.1339 13.8325C13.1475 13.8147 13.1576 13.7943 13.1634 13.7726L13.8941 11.0457C13.8999 11.024 13.9014 11.0013 13.8984 10.9791C13.8955 10.9568 13.8882 10.9353 13.877 10.9158C13.8658 10.8964 13.8508 10.8793 13.833 10.8656C13.8151 10.852 13.7948 10.8419 13.7731 10.8361Z" stroke="#C62828" stroke-width="1.5" stroke-linecap="round" stroke-linejoin="round"/>
</svg>
