<svg width="24" height="24" viewBox="0 0 24 24" fill="none" xmlns="http://www.w3.org/2000/svg">
<path d="M5.28483 14.0134C6.1502 16.8982 8.82711 19 11.9953 19C15.8637 19 18.9998 15.8659 18.9998 12C18.9998 8.13402 15.8637 5 11.9953 5C8.28317 5 5.24575 7.88586 5.00586 11.5349C5.00586 12.5833 5.00586 13.0208 5.28483 14.0134Z" fill="url(#paint0_linear_1161_97900)"/>
<path d="M11.6353 10.2817L9.92131 12.77C9.51726 12.7516 9.11051 12.8659 8.77287 13.0878L5.00916 11.5394C5.00916 11.5394 4.92207 12.9713 5.28501 14.0384L7.94575 15.1356C8.07934 15.7322 8.48891 16.2556 9.09316 16.5073C10.0818 16.9201 11.2217 16.4496 11.6329 15.4612C11.74 15.2028 11.7899 14.9319 11.7826 14.6615L14.2952 12.9112C15.7629 12.9112 16.9557 11.7155 16.9557 10.2471C16.9557 8.77861 15.7629 7.58398 14.2952 7.58398C12.8777 7.58398 11.5559 8.82087 11.6353 10.2817ZM11.2235 15.2894C10.9052 16.0531 10.027 16.4154 9.26366 16.0975C8.91152 15.9509 8.64565 15.6823 8.49227 15.3621L9.35836 15.7208C9.92131 15.9551 10.5672 15.6883 10.8012 15.1259C11.0359 14.5629 10.7696 13.9164 10.207 13.6821L9.31166 13.3113C9.65711 13.1804 10.0499 13.1756 10.4168 13.3282C10.7867 13.482 11.0738 13.7716 11.2259 14.1417C11.378 14.5119 11.3774 14.9204 11.2235 15.2894ZM14.2952 12.0219C13.3182 12.0219 12.5228 11.2258 12.5228 10.2471C12.5228 9.26919 13.3182 8.47283 14.2952 8.47283C15.2729 8.47283 16.0683 9.26919 16.0683 10.2471C16.0683 11.2258 15.2729 12.0219 14.2952 12.0219ZM12.9671 10.2444C12.9671 9.50819 13.5635 8.91104 14.2982 8.91104C15.0336 8.91104 15.63 9.50819 15.63 10.2444C15.63 10.9807 15.0336 11.5773 14.2982 11.5773C13.5635 11.5773 12.9671 10.9807 12.9671 10.2444Z" fill="white"/>
<defs>
<linearGradient id="paint0_linear_1161_97900" x1="12.0028" y1="5" x2="12.0028" y2="19" gradientUnits="userSpaceOnUse">
<stop stop-color="#111D2E"/>
<stop offset="0.21248" stop-color="#051839"/>
<stop offset="0.40695" stop-color="#0A1B48"/>
<stop offset="0.5811" stop-color="#132E62"/>
<stop offset="0.7376" stop-color="#144B7E"/>
<stop offset="0.87279" stop-color="#136497"/>
<stop offset="1" stop-color="#1387B8"/>
</linearGradient>
</defs>
</svg>
