<svg width="20" height="18" viewBox="0 0 20 18" fill="none" xmlns="http://www.w3.org/2000/svg">
<g clip-path="url(#clip0_2267_45495)">
<path d="M19.6917 3.5C19.3067 2.9045 18.5983 2.5 17.7778 2.5H10V3.5H19.6917ZM0 12.5H20V13.5H0V12.5ZM10 8.5H20V9.5H10V8.5ZM10 6.5H20V7.5H10V6.5ZM0 10.5H20V11.5H0V10.5ZM2.22222 15.5H17.7778C18.5983 15.5 19.3067 15.0955 19.6917 14.5H0.308333C0.693333 15.0955 1.40167 15.5 2.22222 15.5ZM10 4.5H20V5.5H10V4.5Z" fill="#B22334"/>
<path d="M0.0377778 13.8395C0.0472222 13.886 0.0577778 13.9325 0.0705556 13.978C0.085 14.0285 0.102778 14.077 0.121667 14.126C0.171111 14.2555 0.231111 14.3805 0.306667 14.4975L0.308333 14.5H19.6917L19.6928 14.498C19.7673 14.3801 19.8291 14.256 19.8772 14.1275C19.9138 14.0337 19.942 13.9374 19.9617 13.8395C19.9844 13.7295 20 13.6165 20 13.5H0C0 13.6165 0.0155556 13.729 0.0377778 13.8395ZM0 11.5H20V12.5H0V11.5ZM0 9.5V10.5H20V9.5H10H0ZM10 7.5H20V8.5H10V7.5ZM10 5.5H20V6.5H10V5.5ZM0.0711111 4.022C0.085 3.971 0.104444 3.9225 0.122222 3.8735C0.102929 3.92235 0.085878 3.97189 0.0711111 4.022ZM10 4.5H20C20 4.3835 19.9844 4.2705 19.9617 4.16C19.9422 4.06205 19.9138 3.96572 19.8767 3.872C19.8285 3.74291 19.7666 3.61832 19.6917 3.5H10V4.5Z" fill="#EEEEEE"/>
<path d="M10 2.5H2.22222C1.63285 2.5 1.06762 2.71071 0.650874 3.08579C0.234126 3.46086 0 3.96957 0 4.5L0 9.5H10V2.5Z" fill="#3C3B6E"/>
<path d="M1.11182 3.863L1.45515 4.0875L1.32404 4.45L1.66682 4.226L2.01015 4.45L1.87904 4.0875L2.22237 3.863H1.79793L1.66682 3.5L1.53626 3.863H1.11182ZM2.22293 4.863L2.56626 5.0875L2.43515 5.45L2.77793 5.226L3.12126 5.45L2.99015 5.0875L3.33348 4.863H2.90904L2.77793 4.5L2.64737 4.863H2.22293ZM4.44515 4.863L4.78848 5.0875L4.65737 5.45L5.00015 5.226L5.34348 5.45L5.21237 5.0875L5.55571 4.863H5.13126L5.00015 4.5L4.86959 4.863H4.44515ZM6.66737 4.863L7.01071 5.0875L6.87959 5.45L7.22237 5.226L7.56571 5.45L7.43459 5.0875L7.77793 4.863H7.35348L7.22237 4.5L7.09182 4.863H6.66737ZM2.22293 6.863L2.56626 7.0875L2.43515 7.45L2.77793 7.226L3.12126 7.45L2.99015 7.0875L3.33348 6.863H2.90904L2.77793 6.5L2.64737 6.863H2.22293ZM4.44515 6.863L4.78848 7.0875L4.65737 7.45L5.00015 7.226L5.34348 7.45L5.21237 7.0875L5.55571 6.863H5.13126L5.00015 6.5L4.86959 6.863H4.44515ZM6.66737 6.863L7.01071 7.0875L6.87959 7.45L7.22237 7.226L7.56571 7.45L7.43459 7.0875L7.77793 6.863H7.35348L7.22237 6.5L7.09182 6.863H6.66737ZM3.33404 3.863L3.67737 4.0875L3.54626 4.45L3.88904 4.226L4.23237 4.45L4.10126 4.0875L4.44459 3.863H4.02015L3.88904 3.5L3.75848 3.863H3.33404ZM5.55626 3.863L5.89959 4.0875L5.76848 4.45L6.11126 4.226L6.45459 4.45L6.32348 4.0875L6.66682 3.863H6.24237L6.11126 3.5L5.98071 3.863H5.55626ZM7.77848 3.863L8.12182 4.0875L7.99071 4.45L8.33348 4.226L8.67682 4.45L8.54571 4.0875L8.88904 3.863H8.46459L8.33348 3.5L8.20293 3.863H7.77848ZM1.11182 5.863L1.45515 6.0875L1.32404 6.45L1.66682 6.226L2.01015 6.45L1.87904 6.0875L2.22237 5.863H1.79793L1.66682 5.5L1.53626 5.863H1.11182ZM3.54626 6.45L3.88904 6.226L4.23237 6.45L4.10126 6.0875L4.44459 5.863H4.02015L3.88904 5.5L3.75848 5.863H3.33404L3.67737 6.0875L3.54626 6.45ZM5.55626 5.863L5.89959 6.0875L5.76848 6.45L6.11126 6.226L6.45459 6.45L6.32348 6.0875L6.66682 5.863H6.24237L6.11126 5.5L5.98071 5.863H5.55626ZM7.77848 5.863L8.12182 6.0875L7.99071 6.45L8.33348 6.226L8.67682 6.45L8.54571 6.0875L8.88904 5.863H8.46459L8.33348 5.5L8.20293 5.863H7.77848ZM1.11182 7.863L1.45515 8.0875L1.32404 8.45L1.66682 8.226L2.01015 8.45L1.87904 8.0875L2.22237 7.863H1.79793L1.66682 7.5L1.53626 7.863H1.11182ZM3.54626 8.45L3.88904 8.226L4.23237 8.45L4.10126 8.0875L4.44459 7.863H4.02015L3.88904 7.5L3.75848 7.863H3.33404L3.67737 8.0875L3.54626 8.45ZM5.55626 7.863L5.89959 8.0875L5.76848 8.45L6.11126 8.226L6.45459 8.45L6.32348 8.0875L6.66682 7.863H6.24237L6.11126 7.5L5.98071 7.863H5.55626ZM7.77848 7.863L8.12182 8.0875L7.99071 8.45L8.33348 8.226L8.67682 8.45L8.54571 8.0875L8.88904 7.863H8.46459L8.33348 7.5L8.20293 7.863H7.77848Z" fill="white"/>
</g>
<defs>
<clipPath id="clip0_2267_45495">
<rect width="20" height="18" fill="white"/>
</clipPath>
</defs>
</svg>
