<svg width="20" height="18" viewBox="0 0 20 18" fill="none" xmlns="http://www.w3.org/2000/svg">
<g clip-path="url(#clip0_2267_45604)">
<path d="M20 13.5C20 14.0304 19.7659 14.5391 19.3491 14.9142C18.9324 15.2893 18.3671 15.5 17.7778 15.5H2.22222C1.63285 15.5 1.06762 15.2893 0.650874 14.9142C0.234126 14.5391 0 14.0304 0 13.5V4.5C0 3.96957 0.234126 3.46086 0.650874 3.08579C1.06762 2.71071 1.63285 2.5 2.22222 2.5H17.7778C18.3671 2.5 18.9324 2.71071 19.3491 3.08579C19.7659 3.46086 20 3.96957 20 4.5V13.5Z" fill="#E30917"/>
<path d="M8.88898 12.0007C8.00493 12.0007 7.15708 11.6846 6.53196 11.122C5.90684 10.5594 5.55565 9.79637 5.55565 9.00072C5.55565 8.20507 5.90684 7.44201 6.53196 6.8794C7.15708 6.31679 8.00493 6.00072 8.88898 6.00072C9.61676 6.00072 10.289 6.21322 10.8373 6.56972C10.455 6.17834 9.98439 5.86481 9.45683 5.65004C8.92927 5.43527 8.35689 5.32419 7.77787 5.32422C6.69446 5.32422 5.65543 5.71156 4.88934 6.40104C4.12325 7.09052 3.69287 8.02565 3.69287 9.00072C3.6928 9.48357 3.79841 9.9617 4.00366 10.4078C4.20892 10.8539 4.50981 11.2593 4.88914 11.6007C5.26848 11.9422 5.71883 12.213 6.21448 12.3978C6.71013 12.5826 7.24137 12.6777 7.77787 12.6777C8.99732 12.6777 10.089 12.1942 10.8373 11.4317C10.271 11.8019 9.58891 12.0011 8.88898 12.0007ZM11.0629 9.11572L12.4184 9.39672L12.5406 10.6432L13.2562 9.57022L14.6118 9.85072L13.6984 8.90672L14.4134 7.83322L13.134 8.32322L12.2206 7.37872L12.3429 8.62572L11.0629 9.11572Z" fill="#EEEEEE"/>
</g>
<defs>
<clipPath id="clip0_2267_45604">
<rect width="20" height="18" fill="white"/>
</clipPath>
</defs>
</svg>
