<svg width="20" height="18" viewBox="0 0 20 18" fill="none" xmlns="http://www.w3.org/2000/svg">
<g clip-path="url(#clip0_2267_45867)">
<path d="M20 13.5C20 14.0304 19.7659 14.5391 19.3491 14.9142C18.9324 15.2893 18.3671 15.5 17.7778 15.5H2.22222C1.63285 15.5 1.06762 15.2893 0.650874 14.9142C0.234126 14.5391 0 14.0304 0 13.5V4.5C0 3.96957 0.234126 3.46086 0.650874 3.08579C1.06762 2.71071 1.63285 2.5 2.22222 2.5H17.7778C18.3671 2.5 18.9324 2.71071 19.3491 3.08579C19.7659 3.46086 20 3.96957 20 4.5V13.5Z" fill="#00AFCA"/>
<path d="M10.5751 9.68922C11.4541 9.68922 12.1667 9.04787 12.1667 8.25672C12.1667 7.46557 11.4541 6.82422 10.5751 6.82422C9.69601 6.82422 8.9834 7.46557 8.9834 8.25672C8.9834 9.04787 9.69601 9.68922 10.5751 9.68922Z" fill="#FFCC4D"/>
<path d="M10.5763 6.71561C10.6707 6.71461 10.7052 6.66111 10.7052 6.59761C10.7052 6.51261 10.5763 5.84961 10.5763 5.84961C10.5763 5.84961 10.4452 6.51261 10.4452 6.59761C10.4452 6.66111 10.4807 6.71561 10.5763 6.71561ZM10.5763 9.80461C10.4807 9.80511 10.4452 9.85861 10.4452 9.92211C10.4452 10.0076 10.5763 10.6616 10.5763 10.6616C10.5763 10.6616 10.7052 10.0071 10.7052 9.92211C10.7057 9.85911 10.6707 9.80461 10.5763 9.80461ZM10.1313 9.74411C10.0396 9.72311 9.9913 9.76661 9.97297 9.82811C9.94852 9.91011 9.88241 10.5811 9.88241 10.5811C9.88241 10.5811 10.1996 9.97061 10.2241 9.88861C10.243 9.82711 10.2235 9.76611 10.1313 9.74411ZM11.0202 6.76011C11.1124 6.78211 11.1624 6.73811 11.1807 6.67711C11.2052 6.59461 11.2663 5.93211 11.2663 5.93211C11.2663 5.93211 10.9541 6.53361 10.9291 6.61661C10.9107 6.67761 10.9285 6.73811 11.0202 6.76011ZM9.71852 9.58911C9.63574 9.54761 9.5763 9.57811 9.5413 9.63361C9.49408 9.70711 9.23741 10.3396 9.23741 10.3396C9.23741 10.3396 9.71908 9.82411 9.7663 9.75061C9.80186 9.69511 9.8013 9.63211 9.71852 9.58911ZM11.4346 6.91361C11.5174 6.95661 11.5785 6.92561 11.6135 6.87061C11.6613 6.79661 11.9107 6.17161 11.9107 6.17161C11.9107 6.17161 11.4352 6.68011 11.3874 6.75361C11.353 6.80861 11.353 6.87111 11.4346 6.91361ZM9.36408 9.34461C9.2963 9.28511 9.23019 9.30061 9.18019 9.34561C9.11352 9.40611 8.68352 9.95711 8.68352 9.95711C8.68352 9.95711 9.29741 9.57111 9.36408 9.51161C9.41408 9.46661 9.43186 9.40461 9.36408 9.34461ZM11.7913 7.15961C11.8591 7.22011 11.9263 7.20461 11.9763 7.15961C12.0435 7.09961 12.4646 6.55311 12.4646 6.55311C12.4646 6.55311 11.8596 6.93411 11.793 6.99461C11.743 7.03961 11.7246 7.09961 11.7913 7.15961ZM9.09297 9.02511C9.04463 8.95211 8.9763 8.95211 8.91463 8.98361C8.83241 9.02611 8.25908 9.45811 8.25908 9.45811C8.25908 9.45811 8.96297 9.22911 9.04463 9.18661C9.1063 9.15461 9.14074 9.09961 9.09297 9.02511ZM12.0652 7.48061C12.1135 7.55511 12.1835 7.55561 12.2441 7.52411C12.3263 7.48111 12.8902 7.05211 12.8902 7.05211C12.8902 7.05211 12.1963 7.27861 12.1141 7.32111C12.053 7.35311 12.0185 7.40661 12.0652 7.48061ZM8.92241 8.65361C8.89686 8.57161 8.83019 8.55561 8.76186 8.57161C8.67074 8.59361 7.99241 8.87761 7.99241 8.87761C7.99241 8.87761 8.73797 8.82011 8.82908 8.79811C8.89741 8.78111 8.94686 8.73661 8.92241 8.65361ZM12.2369 7.85361C12.2624 7.93661 12.3291 7.95361 12.3974 7.93711C12.4891 7.91511 13.1574 7.63211 13.1574 7.63211C13.1574 7.63211 12.4219 7.68911 12.3296 7.71111C12.2619 7.72711 12.2124 7.77161 12.2369 7.85361ZM8.86408 8.25511C8.86297 8.17011 8.80352 8.13911 8.73297 8.13911C8.63852 8.13911 7.90186 8.25511 7.90186 8.25511C7.90186 8.25511 8.63852 8.37311 8.73297 8.37311C8.80352 8.37311 8.86408 8.34111 8.86408 8.25511ZM12.2963 8.25511C12.2969 8.34111 12.3563 8.37311 12.4269 8.37311C12.5219 8.37311 13.2485 8.25511 13.2485 8.25511C13.2485 8.25511 12.5213 8.13911 12.4269 8.13911C12.3563 8.13861 12.2963 8.17011 12.2963 8.25511ZM8.92241 7.85661C8.94574 7.77411 8.89741 7.73061 8.82908 7.71411C8.73797 7.69211 7.99241 7.63261 7.99241 7.63261C7.99241 7.63261 8.67074 7.91811 8.76186 7.94011C8.83019 7.95661 8.89797 7.93961 8.92241 7.85661ZM12.2374 8.65611C12.213 8.73911 12.2619 8.78411 12.3296 8.80061C12.4213 8.82261 13.1574 8.87761 13.1574 8.87761C13.1574 8.87761 12.4891 8.59611 12.3969 8.57411C12.3291 8.55811 12.2619 8.57361 12.2374 8.65611ZM9.09352 7.48511C9.13963 7.41111 9.10574 7.35711 9.04408 7.32561C8.96241 7.28311 8.25963 7.05211 8.25963 7.05211C8.25963 7.05211 8.83241 7.48561 8.91408 7.52811C8.97574 7.56011 9.04574 7.55911 9.09352 7.48511ZM12.0663 9.02961C12.0185 9.10411 12.053 9.15911 12.1141 9.19061C12.1957 9.23361 12.8907 9.45811 12.8907 9.45811C12.8907 9.45811 12.3257 9.03061 12.2441 8.98761C12.183 8.95611 12.1135 8.95611 12.0663 9.02961ZM9.36519 7.16611C9.4313 7.10511 9.41408 7.04561 9.36408 7.00061C9.29686 6.94061 8.68463 6.55361 8.68463 6.55361C8.68463 6.55361 9.11352 7.10611 9.17963 7.16611C9.22963 7.21111 9.29797 7.22711 9.36519 7.16611ZM11.793 9.35061C11.7257 9.41161 11.743 9.47261 11.793 9.51711C11.8596 9.57761 12.4669 9.95661 12.4669 9.95661C12.4669 9.95661 12.0435 9.41211 11.9763 9.35161C11.9263 9.30661 11.8596 9.29011 11.793 9.35061ZM9.72074 6.92161C9.8013 6.87811 9.80186 6.81661 9.76686 6.76111C9.71963 6.68761 9.23963 6.17111 9.23963 6.17111C9.23963 6.17111 9.49408 6.80461 9.5413 6.87811C9.5763 6.93361 9.63797 6.96461 9.72074 6.92161ZM11.4369 9.59711C11.3546 9.64011 11.3535 9.70261 11.3885 9.75761C11.4363 9.83161 11.913 10.3391 11.913 10.3391C11.913 10.3391 11.6613 9.71411 11.6141 9.64011C11.5785 9.58561 11.5185 9.55411 11.4369 9.59711ZM10.133 6.76811C10.2241 6.74511 10.2419 6.68511 10.2241 6.62361C10.1996 6.54161 9.88408 5.93111 9.88408 5.93111C9.88408 5.93111 9.94797 6.60211 9.97241 6.68411C9.99074 6.74561 10.0407 6.79011 10.133 6.76811ZM11.0219 9.75161C10.9296 9.77461 10.9107 9.83461 10.9291 9.89611C10.9535 9.97861 11.268 10.5801 11.268 10.5801C11.268 10.5801 11.2046 9.91761 11.1802 9.83561C11.1624 9.77411 11.113 9.72961 11.0219 9.75161Z" fill="#FFCC4D"/>
<path d="M12.1368 11.823L12.1163 11.831L12.0935 11.834L12.0763 11.837L12.0446 11.831L12.0307 11.826L12.018 11.8205L12.003 11.812L11.978 11.796L11.9552 11.7795L11.9424 11.7715L11.9263 11.7655L11.9152 11.763H11.8991L11.8363 11.8805L11.8235 11.897L11.8113 11.9105L11.7985 11.919L11.7874 11.9275L11.7713 11.933H11.7563L11.7424 11.9275L11.723 11.919L11.7174 11.9105L11.7107 11.902L11.7041 11.891L11.6974 11.878L11.6885 11.8365L11.6702 11.85L11.653 11.8695L11.6185 11.9165L11.598 11.941L11.5763 11.96L11.5646 11.9715L11.5496 11.98L11.5346 11.986L11.5163 11.991H11.5074L11.4913 11.994L11.4763 11.991L11.4646 11.986L11.4291 11.9475L11.3891 11.909L11.3618 11.9475L11.3302 11.98L11.3152 11.9935L11.3013 12.007L11.2863 12.018L11.258 12.032L11.243 12.035H11.228L11.2152 12.032L11.203 12.026L11.1941 12.0175L11.1824 12.0045C11.1746 11.9841 11.1663 11.964 11.1574 11.944L11.1541 11.93L11.1485 11.9195L11.1418 11.914H11.1352L11.053 12.035L11.0413 12.0455L11.0196 12.054L10.9718 12.0645H10.9435L10.9218 12.059L10.9152 12.056L10.9063 12.0475L10.9041 12.0425V12.0315L10.9152 11.9105L10.9063 11.9135L10.8824 11.924C10.8605 11.9445 10.8392 11.9655 10.8185 11.987L10.7913 12.0175L10.7574 12.043L10.7257 12.0645L10.708 12.0735L10.6713 12.0785L10.6563 12.0755L10.6496 12.0735L10.6435 12.0675L10.6402 12.059V12.0505L10.6435 12.0155L10.653 11.96L10.6468 11.9275L10.6341 11.9085L10.6157 11.933L10.5857 11.9685C10.5607 11.993 10.5352 12.017 10.5091 12.0405C10.4945 12.0492 10.4802 12.0584 10.4663 12.068L10.433 12.0785L10.4263 12.0755H10.4168L10.4102 12.0705L10.408 12.0675L10.4013 12.059L10.3991 12.0505V12.04L10.3957 12.026L10.3991 11.922C10.3435 11.956 10.2874 11.989 10.2307 12.0205L10.2096 12.029L10.1857 12.04C10.163 12.045 10.1407 12.05 10.1185 12.056H10.0963L10.0757 12.0535L10.0568 12.0475L10.0663 12.0255L10.0846 11.987L10.0963 11.971L10.1096 11.9545L10.1213 11.938L10.1524 11.9105L10.1863 11.889L10.2252 11.8665L10.2652 11.85L10.3113 11.8365L10.3568 11.826L10.4607 11.8095L10.5124 11.8035C10.6657 11.7955 10.8196 11.7945 10.973 11.7955L11.1413 11.787L11.1935 11.7815L11.2902 11.765L11.3368 11.7535L11.3802 11.7375L11.4202 11.721C11.4413 11.706 11.463 11.691 11.4852 11.677L11.5146 11.646L11.483 11.5915L11.508 11.5885L11.5318 11.5835L11.5568 11.5725L11.5774 11.5585L11.5863 11.5535L11.5963 11.545L11.603 11.534L11.6096 11.526L11.6118 11.515V11.496L11.6052 11.485L11.6574 11.4765L11.713 11.471L11.7713 11.468H11.8318C11.9168 11.471 12.0013 11.4755 12.0857 11.4815C12.2135 11.4955 12.3418 11.5065 12.4702 11.5175L12.5852 11.523V11.561L12.583 11.578L12.5763 11.594L12.5707 11.6105L12.5641 11.624L12.5552 11.635C12.5446 11.646 12.533 11.657 12.5213 11.6675L12.4941 11.6835L12.4646 11.6945L12.4352 11.7005L12.4013 11.706L12.3363 11.7005L12.3024 11.692L12.273 11.678L12.2413 11.6645L12.2174 11.645L12.1935 11.6235V11.6705C12.1891 11.701 12.1835 11.731 12.1785 11.7615L12.1668 11.79L12.1602 11.8015L12.1513 11.8095L12.1446 11.818L12.1368 11.823ZM9.6824 11.5645L9.75184 11.592C9.76572 11.5816 9.77999 11.5716 9.79462 11.562L9.82184 11.549L9.84629 11.535L9.93795 11.502L10.0168 11.469L10.0568 11.4555L10.1246 11.423L10.1518 11.406C10.2207 11.3655 10.2902 11.3255 10.3596 11.286L10.4202 11.2475L10.4663 11.2145C10.5118 11.1775 10.5563 11.14 10.6007 11.102L10.6191 11.091L10.6402 11.08C10.6655 11.0685 10.691 11.0575 10.7168 11.047L10.7685 11.031C10.8718 11.0055 10.9768 10.9855 11.0824 10.9705C11.1902 10.959 11.298 10.946 11.4057 10.935L11.5491 10.913C11.5846 10.904 11.6202 10.896 11.6563 10.8885L11.693 10.847L11.7518 10.7895L11.7918 10.754L11.8363 10.7205L11.8885 10.685L11.9491 10.649L12.0413 10.6C12.1074 10.57 12.173 10.54 12.2385 10.509C12.3552 10.46 12.4702 10.408 12.5846 10.355L12.6391 10.322L12.6541 10.2805L12.6757 10.24L12.703 10.1985L12.7735 10.1135C12.8057 10.0825 12.8368 10.0515 12.868 10.0195C12.9057 9.9865 12.9446 9.9545 12.9841 9.9235L13.043 9.88L13.0724 9.8605L13.1041 9.8415C13.1263 9.83 13.1485 9.819 13.1713 9.8085L13.2052 9.7945L13.238 9.784L13.3096 9.767L13.3452 9.765L13.3791 9.762L13.4146 9.765L13.4485 9.77L13.4463 9.803L13.4374 9.8355L13.4102 9.9045L13.3874 9.94L13.3602 9.976L13.3268 10.014L13.2868 10.0525L13.3185 10.0495L13.3457 10.044L13.3674 10.038L13.388 10.03L13.428 10.019L13.4852 10.0135L13.4885 10.033V10.052L13.4852 10.071L13.4796 10.0875L13.4707 10.104L13.458 10.1205L13.4463 10.1335L13.4313 10.1475C13.3893 10.1839 13.3465 10.2196 13.303 10.2545L13.3391 10.2575C13.3657 10.265 13.3924 10.2725 13.4196 10.279L13.4491 10.285L13.4135 10.31C13.3853 10.327 13.3568 10.3435 13.328 10.3595L13.2302 10.409L13.1813 10.4365L13.1324 10.467L13.0868 10.5L13.1074 10.5025L13.1357 10.5135L13.148 10.5165L13.1596 10.522L13.1696 10.5245L13.1785 10.522L13.118 10.5525C13.0801 10.5685 13.0425 10.585 13.0052 10.602L12.9585 10.627L12.9496 10.6355L12.9441 10.644L12.9374 10.652L12.9396 10.663L12.9463 10.6715L12.958 10.6795L12.9691 10.6885L12.9646 10.699L12.958 10.708L12.9463 10.716L12.9352 10.7245L12.9057 10.7375L12.8702 10.7515L12.8007 10.7735L12.7574 10.793L12.818 10.8475L12.7963 10.8665L12.7757 10.8805L12.7574 10.889L12.7357 10.897L12.6935 10.9025H12.6335L12.6402 10.9275L12.6491 10.952L12.6618 11.0075C12.624 11.034 12.5852 11.0595 12.5457 11.084L12.4752 11.125L12.3968 11.166L12.3502 11.1855L12.3046 11.2045C12.2532 11.2225 12.2011 11.239 12.1485 11.254L12.0302 11.2765L11.9652 11.285C12.0357 11.287 12.1063 11.288 12.1768 11.2875L12.3502 11.271L12.4263 11.2575L12.4935 11.241C12.538 11.2275 12.5813 11.2125 12.6246 11.197L12.7091 11.162L12.7924 11.1205L12.8707 11.076L12.9541 11.0325L12.9041 11.0105L12.8563 10.997L12.8335 10.9875C12.8163 10.98 12.7991 10.9725 12.7813 10.966L12.753 10.952L12.7768 10.936L12.8063 10.925L12.838 10.9145C12.8746 10.9065 12.9118 10.899 12.9485 10.892C12.9963 10.8875 13.0441 10.882 13.0918 10.876L13.1524 10.8705L13.1991 10.86L13.2113 10.854L13.2202 10.8455L13.218 10.8425L13.2113 10.837L13.2024 10.834L13.1907 10.829L13.1568 10.823L13.1135 10.8175L13.0713 10.8145L13.0291 10.809L12.9913 10.8005L12.9685 10.792L13.2668 10.732L13.3191 10.718C13.3418 10.7105 13.3641 10.702 13.3863 10.6935L13.4157 10.6765L13.4285 10.666L13.4252 10.6635L13.4196 10.6575L13.3913 10.652L13.3524 10.649H13.3057C13.2741 10.647 13.243 10.645 13.2113 10.644L13.1724 10.638L13.1474 10.6325L13.1907 10.6165C13.2552 10.5985 13.3207 10.582 13.3863 10.5665C13.4235 10.555 13.4613 10.5435 13.4991 10.5335L13.5568 10.5115L13.5841 10.498L13.6091 10.4845L13.618 10.476L13.6274 10.465L13.6363 10.457L13.6396 10.4485L13.6363 10.44L13.6274 10.434L13.618 10.432H13.5335L13.4935 10.434H13.4391L13.423 10.432L13.4124 10.426L13.3991 10.4205C13.5102 10.3545 13.6224 10.289 13.7352 10.225L13.823 10.17C13.8466 10.1524 13.8698 10.1342 13.8924 10.1155L13.9196 10.088L13.9446 10.0605L13.963 10.0305L13.978 10.0005L13.9868 9.967V9.9315H13.9663L13.9446 9.9345L13.8968 9.9505C13.8545 9.97445 13.8115 9.99746 13.768 10.0195L13.7441 10.0335L13.7157 10.044L13.6885 10.0525L13.6635 10.058L13.6396 10.061H13.6113L13.5874 10.0525L13.6613 10.003C13.7207 9.9575 13.7796 9.9115 13.838 9.8655C13.9024 9.81005 13.9654 9.7532 14.0268 9.695L14.1146 9.607C14.1407 9.576 14.1674 9.546 14.1946 9.516C14.2163 9.488 14.238 9.4595 14.2585 9.431L14.2652 9.4205L14.2674 9.412L14.2652 9.4005L14.2618 9.3925L14.2585 9.3835L14.2496 9.378L14.2402 9.3695L14.2313 9.3665L14.2196 9.3615L14.2063 9.3585H14.1824L14.1707 9.3615L14.1546 9.3635L14.1457 9.3725L14.133 9.381C14.0707 9.437 14.0091 9.494 13.9485 9.5515L13.8746 9.6145C13.8261 9.65256 13.7772 9.69023 13.728 9.7275C13.7048 9.74163 13.6812 9.7553 13.6574 9.7685L13.5902 9.799L13.6107 9.7825C13.633 9.7635 13.6546 9.7445 13.6757 9.725C13.7541 9.644 13.8291 9.56 13.9013 9.475L14.0424 9.2965L14.0802 9.2365L14.118 9.1815L14.1485 9.1315L14.1724 9.0845L14.1874 9.0465L14.1907 9.033V9.011L14.1874 9.0025L14.1763 8.986L14.1696 8.9805L14.1596 8.978L14.1424 8.969L14.1196 8.9635H14.078L14.0663 8.9665L14.0574 8.969L14.0446 8.975L14.0357 8.983L14.0107 9.0025C13.9833 9.03218 13.9568 9.06252 13.9313 9.0935C13.8702 9.1795 13.8057 9.2635 13.7391 9.346L13.6618 9.4285L13.623 9.4645L13.5807 9.4975L13.6352 9.406L13.7207 9.2445L13.7763 9.1265L13.8002 9.066L13.8424 8.942C13.853 8.902 13.8624 8.862 13.8707 8.8215C13.8746 8.784 13.878 8.7465 13.8807 8.7085L13.8763 8.681L13.8741 8.6565L13.8707 8.631L13.8618 8.599L13.8552 8.59L13.8402 8.5765L13.8196 8.5685L13.7968 8.5625H13.7763L13.7568 8.5655L13.7513 8.5685L13.7424 8.5705L13.7391 8.5765C13.6841 8.7325 13.6424 8.8915 13.5946 9.049C13.5768 9.093 13.5591 9.137 13.5402 9.181L13.4946 9.2605L13.4663 9.296L13.4846 9.217C13.4935 9.171 13.5013 9.1255 13.5085 9.0795L13.5213 8.9665L13.5246 8.9195C13.5229 8.89563 13.5207 8.87179 13.518 8.848L13.5124 8.8205L13.5035 8.7985L13.4907 8.782L13.4841 8.7765L13.4657 8.771L13.4568 8.768H13.4468L13.438 8.771L13.413 8.7765L13.3891 8.7875C13.3702 8.8725 13.3474 8.957 13.3218 9.0405C13.2855 9.14582 13.2428 9.24931 13.1941 9.3505C13.1611 9.41269 13.1263 9.47404 13.0896 9.5345L13.0224 9.639L12.9496 9.7375C12.9008 9.799 12.8502 9.85935 12.798 9.9185C12.7468 9.9705 12.6946 10.0215 12.6418 10.0725C12.5868 10.121 12.5307 10.169 12.4735 10.216C12.4146 10.26 12.3552 10.3025 12.2946 10.3445C12.2208 10.3926 12.1452 10.4384 12.068 10.482L11.9335 10.553L11.7196 10.6415L11.4996 10.7125L11.3174 10.7625L11.1285 10.8005L11.0341 10.8145L10.8407 10.8365L10.743 10.842L10.7335 10.845L10.7241 10.8475L10.7057 10.8565L10.6852 10.8695C10.6613 10.8883 10.6377 10.9074 10.6146 10.927L10.5657 10.9715L10.3885 11.1495L10.3213 11.21L10.2424 11.2645L10.2113 11.2835L10.1807 11.3005L10.1141 11.328C10.0107 11.366 9.90573 11.4005 9.80184 11.438L9.77462 11.4515L9.75018 11.463L9.7324 11.4735L9.69851 11.504L9.68907 11.5175L9.6824 11.531L9.68018 11.5505V11.5645" fill="#FFCC4D"/>
<path d="M10.8007 11.6879L10.8518 11.6939L10.8768 11.7024L10.8823 11.7049V11.7079H10.8768L10.8701 11.7104L10.8212 11.7189H10.7823L10.6545 11.7104L10.3307 11.7049C10.2451 11.7059 10.1595 11.7079 10.074 11.7104C9.99844 11.7154 9.92344 11.7209 9.84788 11.7269L9.78955 11.7354L9.73788 11.7459C9.72566 11.7499 9.71399 11.7539 9.70177 11.7569L9.68621 11.7629L9.67399 11.7714L9.67955 11.7434L9.69288 11.7154L9.6501 11.7264L9.61344 11.7429L9.59899 11.7514L9.58621 11.7624L9.57677 11.7754L9.57455 11.7894L9.56566 11.7704L9.55899 11.7534C9.55736 11.7415 9.55513 11.7296 9.55232 11.7179C9.55566 11.7034 9.55899 11.6889 9.56121 11.6744L9.57121 11.6604L9.57677 11.6494L9.58955 11.6364L9.61399 11.6144L9.64732 11.5949L9.6851 11.5759C9.70501 11.5864 9.72628 11.5946 9.74844 11.6004C9.77029 11.6022 9.79233 11.6003 9.81344 11.5949C9.84732 11.6219 9.9351 11.6164 9.94732 11.5674C9.95206 11.5493 9.95206 11.5305 9.94732 11.5124L9.98399 11.5099L10.0268 11.5039L10.1212 11.4819L10.1707 11.4734L10.2162 11.4629L10.259 11.4574L10.2951 11.4544L10.2801 11.4659L10.2007 11.5204L10.1707 11.5394L10.2095 11.5484L10.2434 11.5539L10.1712 11.6279L10.1523 11.6499L10.1762 11.6584L10.2007 11.6644L10.2284 11.6699H10.2834L10.3379 11.6589L10.3595 11.6474L10.3845 11.6589L10.409 11.6674C10.4245 11.6714 10.4407 11.6754 10.4568 11.6784C10.4945 11.6819 10.5323 11.6859 10.5707 11.6889H10.8007M10.5223 10.8529L10.4951 10.9024L10.464 10.9659C10.448 10.9918 10.433 11.0181 10.419 11.0449L10.4034 11.0589L10.3673 11.0314L10.3273 11.0064L10.2845 10.9869L10.2395 10.9709L10.1412 10.9484L10.0929 10.9404C10.04 10.9349 9.98705 10.9304 9.93399 10.9269C9.86372 10.9259 9.7935 10.9229 9.72344 10.9179L9.62566 10.9074L9.57066 10.8989L9.51899 10.8884L9.46455 10.8714L9.41843 10.8499L9.38455 10.8299L9.31455 10.7834C9.21232 10.6969 9.11121 10.6094 9.00621 10.5249L8.94566 10.4869L8.91788 10.4759L8.88899 10.4679L8.83732 10.4574C8.80715 10.4477 8.77678 10.4385 8.74621 10.4299C8.71777 10.4176 8.68906 10.4057 8.6601 10.3944C8.60972 10.3663 8.56095 10.3359 8.51399 10.3034L8.48344 10.2779L8.42288 10.2234L8.36455 10.1659C8.26844 10.0604 8.17788 9.95141 8.08399 9.84441C8.0391 9.8015 7.99335 9.75933 7.94677 9.71791L7.90732 9.68541L7.86732 9.65541L7.77955 9.59791L7.77066 9.60041L7.76066 9.60891L7.75121 9.61991C7.74566 9.63241 7.74121 9.64541 7.73677 9.65841L7.73344 9.66941L7.71121 9.66041L7.69288 9.65191L7.67066 9.64341L7.65232 9.63791H7.61288L7.59121 9.64341L7.5701 9.65191C7.58677 9.67091 7.60288 9.68991 7.61844 9.70941L7.64566 9.74791L7.6951 9.83291L7.71288 9.87441L7.71955 9.89641L7.72621 9.91291L7.72899 9.93191V9.94791H7.56455L7.58844 9.98091C7.60677 10.0034 7.62621 10.0254 7.64566 10.0469L7.74677 10.1379L7.78066 10.1624L7.81177 10.1819C7.78534 10.1844 7.75885 10.1864 7.73232 10.1879L7.65232 10.1959L7.67955 10.2184C7.70344 10.2334 7.72677 10.2489 7.7501 10.2649L7.78955 10.2894L7.82955 10.3114L7.86899 10.3309L7.90566 10.3419L7.93955 10.3499L7.96677 10.3554L7.97566 10.3584L7.98232 10.3644L7.98455 10.3669V10.3774L7.97566 10.3999L7.97344 10.4159L7.96955 10.4269V10.4349L7.97344 10.4489L7.97566 10.4599L7.98232 10.4649L7.99121 10.4709L8.00288 10.4764L8.01844 10.4794L8.04955 10.4904L8.06455 10.4954L8.07677 10.5039L8.07955 10.5069V10.5124L8.07677 10.5154L8.05232 10.5314L8.0401 10.5424L8.02788 10.5559V10.5674L8.0251 10.5784L8.03121 10.6079L8.13788 10.6409L8.16232 10.6459L8.18677 10.6549L8.2051 10.6634L8.22066 10.6719L8.11955 10.7434L8.14677 10.7654L8.18066 10.7819L8.22344 10.8009C8.25399 10.8109 8.28455 10.8199 8.31566 10.8289L8.36121 10.8369L8.40121 10.8454H8.43732L8.40344 10.8674L8.36066 10.8919L8.3151 10.9144L8.28121 10.9364L8.31177 10.9554C8.40455 10.9984 8.49955 11.0384 8.59621 11.0739C8.7651 11.1359 8.93788 11.1899 9.11177 11.2384C9.15066 11.2469 9.18899 11.2559 9.22732 11.2659L9.27621 11.2744L9.17788 11.2659C9.11676 11.2588 9.05581 11.2505 8.9951 11.2409L8.90955 11.2244L8.74121 11.1809L8.66232 11.1559C8.45121 11.0819 8.2451 10.9969 8.03344 10.9249L8.04899 10.9169L8.09177 10.9029L8.11899 10.8974C8.15621 10.8874 8.19232 10.8764 8.22899 10.8644C8.15625 10.8545 8.08382 10.8428 8.01177 10.8294C7.97443 10.8185 7.93683 10.8083 7.89899 10.7989L7.87732 10.7904L7.85899 10.7819L7.84399 10.7729L7.83399 10.7649V10.7624L7.83732 10.7594L7.84677 10.7564L7.85566 10.7509L7.8801 10.7424L7.98677 10.7144L8.04844 10.6954C7.9601 10.6804 7.87121 10.6669 7.78232 10.6544L7.73955 10.6454L7.70566 10.6349L7.69344 10.6289L7.68177 10.6204L7.67177 10.6154L7.66566 10.6064L7.6751 10.6009L7.70232 10.5954C7.73066 10.5914 7.75955 10.5869 7.78788 10.5819L7.83677 10.5764C7.86455 10.5694 7.89177 10.5619 7.91899 10.5539L7.93177 10.5459L7.94399 10.5369L7.89566 10.5204L7.86455 10.5154L7.83399 10.5094L7.69399 10.4929L7.65732 10.4849L7.62344 10.4789L7.55621 10.4574L7.5251 10.4434L7.5001 10.4274L7.47566 10.4079L7.45732 10.3834L7.46399 10.3804L7.47566 10.3774H7.49121L7.51566 10.3804L7.63177 10.3859L7.69955 10.3919H7.78455L7.80844 10.3889L7.82732 10.3834L7.83955 10.3774C7.78207 10.3563 7.72502 10.3343 7.66844 10.3114C7.63099 10.2943 7.5932 10.2778 7.5551 10.2619L7.43955 10.2074L7.38455 10.1769C7.35067 10.1554 7.31715 10.1334 7.28399 10.1109L7.24121 10.0779L7.22232 10.0589L7.20344 10.0424L7.19177 10.0259L7.17899 10.0064L7.16677 9.99041L7.1601 9.97141L7.1551 9.93591H7.17566L7.2001 9.93841L7.22455 9.94741L7.24899 9.95541L7.29732 9.98291L7.35232 10.0104L7.37677 10.0244L7.40399 10.0374L7.43121 10.0484L7.45566 10.0569L7.48288 10.0629L7.50732 10.0654H7.5351L7.55899 10.0569L7.48677 10.0069C7.42693 9.96221 7.36785 9.91671 7.30955 9.87041C7.21286 9.78755 7.12 9.70114 7.03121 9.61141L6.99232 9.56491L6.95232 9.52091C6.9304 9.49268 6.90891 9.46418 6.88788 9.43541L6.88232 9.42441V9.40541L6.8851 9.39691L6.88788 9.38891L6.89732 9.38341L6.90621 9.37491L6.91621 9.36891L6.92788 9.36591L6.9401 9.36391H6.96455L6.97955 9.36591L6.99288 9.36891L7.00455 9.37741C7.07066 9.43641 7.13566 9.49591 7.19955 9.55641C7.2701 9.61741 7.34344 9.67641 7.41955 9.73241L7.48955 9.77291L7.52566 9.78991L7.55955 9.80041L7.53566 9.78691L7.47177 9.72941C7.39344 9.64841 7.31899 9.56441 7.24566 9.47941C7.21336 9.43948 7.18169 9.39914 7.15066 9.35841C7.12298 9.31858 7.09446 9.27924 7.0651 9.24041C7.04183 9.20603 7.01942 9.17119 6.99788 9.13591C6.98549 9.10736 6.97253 9.07902 6.95899 9.05091L6.9551 9.03741V9.01491L6.95899 9.00691L6.97066 8.99041L6.97732 8.98441L6.98677 8.97941L7.02621 8.96791H7.06899L7.08121 8.97041L7.0901 8.97341L7.10232 8.97941L7.13621 9.00691L7.21566 9.09791C7.27788 9.18391 7.34344 9.26791 7.41121 9.35041L7.48344 9.43291L7.52344 9.46841L7.56621 9.50141C7.51755 9.41832 7.47087 9.3343 7.42621 9.24941C7.40731 9.21029 7.38897 9.17095 7.37121 9.13141L7.34677 9.07091C7.33386 9.02921 7.31959 8.98785 7.30399 8.94691L7.28899 8.88641L7.27788 8.82491L7.27121 8.76741L7.26844 8.71291L7.27121 8.68541L7.2751 8.66041L7.27788 8.63541L7.28399 8.61091L7.2901 8.60191L7.29344 8.59391L7.30232 8.58491L7.30844 8.57991L7.32955 8.57141L7.35121 8.56641H7.37232L7.39066 8.56941L7.39955 8.57141L7.40621 8.57441L7.40955 8.58041L7.41288 8.58841C7.4651 8.74191 7.50788 8.89791 7.55288 9.05341C7.57066 9.09691 7.58899 9.13991 7.60844 9.18241L7.62955 9.22341L7.65399 9.26191L7.68121 9.30041L7.66344 9.22041C7.65646 9.17474 7.64831 9.12923 7.63899 9.08391C7.63289 9.03083 7.62789 8.97765 7.62399 8.92441L7.6301 8.85291L7.63621 8.82491L7.64566 8.80341L7.65788 8.78691L7.66399 8.78091L7.67288 8.77541L7.68177 8.77291H7.70955L7.73455 8.78091L7.75844 8.79191L7.80121 8.96491C7.81677 9.01741 7.83399 9.06991 7.85288 9.12141C7.88399 9.19991 7.91788 9.27791 7.95399 9.35491L7.99677 9.43441L8.05788 9.53941L8.12455 9.64341L8.19844 9.74241L8.27732 9.84091L8.35121 9.92341C8.40232 9.97541 8.45399 10.0269 8.50677 10.0774C8.56177 10.1259 8.61788 10.1734 8.6751 10.2199L8.76344 10.2864C8.84455 10.3434 8.92788 10.3974 9.01399 10.4484C9.08121 10.4844 9.14955 10.5194 9.21844 10.5529L9.42844 10.6439C9.5351 10.6819 9.64288 10.7169 9.75177 10.7479C9.85844 10.7734 9.96677 10.7954 10.0757 10.8139C10.2218 10.8349 10.3718 10.8474 10.5223 10.8529Z" fill="#FFCC4D"/>
<path d="M1.92075 14.2601C1.92075 14.2601 1.78908 14.3586 1.74464 14.3091C1.67297 14.2291 1.96519 13.8296 1.96519 13.6886C1.96519 13.4581 1.79352 13.3941 1.58241 13.3616C1.44019 13.3396 1.20964 13.3711 1.20964 13.3711C1.25297 13.4236 1.2813 13.4401 1.35464 13.4431C1.30411 13.4671 1.26197 13.5032 1.23293 13.5474C1.20389 13.5916 1.18909 13.6423 1.19019 13.6936C1.19019 13.8916 1.2813 13.9736 1.2813 14.1981C1.2813 14.3226 1.16797 14.4806 1.16797 14.4806C1.36797 14.4626 1.46797 14.2961 1.4113 14.1621C1.42661 14.1596 1.44239 14.1604 1.45728 14.1644C1.47218 14.1685 1.48576 14.1758 1.49686 14.1856C1.5113 14.1491 1.48852 14.1056 1.45741 14.0691C1.48241 14.0576 1.50075 14.0646 1.54019 14.0716C1.5363 14.0336 1.51075 13.9936 1.44908 13.9556C1.62908 13.9971 1.73964 13.8846 1.73964 13.7666C1.73964 13.6766 1.67019 13.6126 1.60186 13.6126C1.57598 13.6134 1.55081 13.6205 1.52908 13.6331C1.5163 13.6091 1.52297 13.5761 1.53575 13.5516C1.4863 13.5631 1.45464 13.5896 1.47741 13.6456C1.46047 13.6459 1.44377 13.6493 1.42837 13.6557C1.41297 13.662 1.39921 13.6712 1.38797 13.6826C1.3986 13.6946 1.41226 13.7042 1.42783 13.7104C1.44339 13.7167 1.46039 13.7195 1.47741 13.7186C1.44964 13.7706 1.48075 13.8001 1.52575 13.8231C1.52575 13.8231 1.49686 13.7186 1.57075 13.7186C1.60408 13.7186 1.63408 13.7291 1.63408 13.7726C1.63408 13.8101 1.59686 13.8631 1.5113 13.8601C1.42519 13.8566 1.35575 13.8066 1.35575 13.6841C1.35575 13.5696 1.45741 13.5131 1.5913 13.5096C1.71241 13.5061 1.80352 13.5651 1.80352 13.6776C1.80352 13.8266 1.56352 14.1676 1.56352 14.3006C1.56352 14.4006 1.66297 14.4561 1.76075 14.4561C1.88741 14.4561 1.99408 14.3431 1.99408 14.3431L1.92075 14.2601ZM1.89297 11.5591C1.89297 11.3101 2.14186 11.1816 2.33741 11.1816C2.60075 11.1816 2.7413 11.3236 2.7413 11.5086C2.7413 11.6146 2.71964 11.6806 2.66575 11.7811L2.06186 12.9096C2.03975 12.957 2.03006 13.0083 2.03352 13.0596C2.03352 13.1606 2.14297 13.2436 2.25741 13.2461C2.3613 13.2486 2.47519 13.1586 2.47519 13.0561C2.47519 12.9316 2.40408 12.8766 2.33019 12.8766C2.23964 12.8766 2.20352 12.9096 2.20352 12.9671C2.20352 13.0076 2.22519 13.0246 2.25575 13.0246C2.33352 13.0246 2.31186 12.9306 2.31186 12.9306C2.32221 12.9326 2.33196 12.9365 2.34042 12.9422C2.34888 12.948 2.35585 12.9553 2.36083 12.9637C2.36581 12.972 2.36868 12.9813 2.36924 12.9908C2.36981 13.0003 2.36804 13.0098 2.36408 13.0186C2.39317 13.0241 2.41949 13.038 2.43908 13.0581C2.41907 13.0773 2.39281 13.0903 2.36408 13.0951C2.38241 13.1491 2.35797 13.1756 2.30575 13.1871C2.31475 13.1689 2.31727 13.1487 2.31297 13.1291C2.23019 13.1501 2.10352 13.1171 2.10352 12.9881C2.10352 12.8601 2.20186 12.7526 2.38686 12.7791C2.34241 12.7611 2.32075 12.7226 2.3163 12.6786C2.34964 12.6911 2.38686 12.6926 2.38686 12.6926C2.36519 12.6586 2.33519 12.6291 2.3363 12.5611C2.37075 12.5756 2.40241 12.6011 2.4463 12.5846C2.37741 12.4631 2.46186 12.2961 2.67741 12.2556C2.60424 12.3272 2.56257 12.4204 2.56019 12.5176C2.56019 12.8076 2.65019 12.8556 2.65019 13.0566C2.6487 13.1035 2.63494 13.1494 2.61004 13.1906C2.58513 13.2318 2.54978 13.2671 2.50686 13.2936V13.2901C2.56908 13.3051 2.60964 13.3336 2.63297 13.3711C2.48908 13.4076 2.27964 13.4071 2.16797 13.3676C2.11735 13.361 2.069 13.3444 2.02643 13.3189C1.98386 13.2934 1.94814 13.2596 1.92186 13.2201C1.8947 13.1638 1.88069 13.103 1.88069 13.0416C1.88069 12.9802 1.8947 12.9195 1.92186 12.8631C2.00741 12.7026 2.41075 11.9331 2.5363 11.6906C2.564 11.6392 2.57861 11.5828 2.57908 11.5256C2.57908 11.3781 2.42852 11.3261 2.34297 11.3261C2.24019 11.3261 2.13575 11.3971 2.13575 11.4841C2.13575 11.5401 2.16964 11.5731 2.21741 11.5731C2.33352 11.5731 2.3263 11.4846 2.30297 11.4286C2.37464 11.4586 2.41686 11.5096 2.40519 11.5646C2.4463 11.5696 2.48519 11.5871 2.52075 11.6231C2.49241 11.6561 2.45797 11.6801 2.40519 11.6806C2.42852 11.7656 2.36519 11.8016 2.30297 11.8211C2.32241 11.7591 2.33519 11.6866 2.21741 11.6866C2.1313 11.6866 2.06352 11.6731 2.02408 11.6226C2.0213 11.6901 2.01408 11.9551 2.01408 11.9551C2.00964 12.0551 2.16241 12.0521 2.25964 12.0226C2.22241 12.1376 2.14741 12.2001 1.97241 12.1841C1.99922 12.1934 2.0221 12.2101 2.03785 12.2317C2.0536 12.2533 2.06141 12.2788 2.06019 12.3046C2.06019 12.3986 1.97575 12.5021 1.92075 12.5331L1.89297 11.5591Z" fill="#FFCC4D"/>
<path d="M1.94794 11.56C1.94794 11.311 1.69905 11.1825 1.5035 11.1825C1.24016 11.1825 1.09961 11.3245 1.09961 11.5095C1.09961 11.6155 1.12128 11.6815 1.17516 11.782L1.77905 12.9105C1.80097 12.958 1.81047 13.0093 1.80683 13.0605C1.80683 13.1615 1.69739 13.2445 1.5835 13.247C1.47905 13.2495 1.36572 13.1595 1.36572 13.057C1.36572 12.9325 1.43683 12.8775 1.51072 12.8775C1.60128 12.8775 1.63739 12.9105 1.63739 12.968C1.63739 13.0085 1.61572 13.0255 1.58516 13.0255C1.50739 13.0255 1.52905 12.9315 1.52905 12.9315C1.5187 12.9335 1.50895 12.9374 1.50049 12.9432C1.49203 12.9489 1.48506 12.9562 1.48008 12.9646C1.4751 12.973 1.47223 12.9822 1.47167 12.9917C1.47111 13.0012 1.47287 13.0107 1.47683 13.0195C1.44774 13.0251 1.42142 13.0389 1.40183 13.059C1.42184 13.0782 1.4481 13.0912 1.47683 13.096C1.45905 13.15 1.4835 13.1765 1.53572 13.1875C1.52672 13.1693 1.5242 13.1491 1.5285 13.1295C1.61128 13.1505 1.73794 13.1175 1.73794 12.9885C1.73794 12.8605 1.63961 12.753 1.45516 12.7795C1.49905 12.7615 1.52128 12.723 1.52516 12.679C1.50276 12.6869 1.47916 12.6916 1.45516 12.693C1.47628 12.659 1.50628 12.6295 1.50517 12.5615C1.47072 12.576 1.43961 12.6015 1.39516 12.585C1.46405 12.4635 1.37961 12.2965 1.16405 12.256C1.23723 12.3276 1.2789 12.4208 1.28128 12.518C1.28128 12.808 1.19183 12.856 1.19183 13.057C1.19183 13.141 1.24017 13.2325 1.33517 13.294V13.2905C1.30901 13.2953 1.28427 13.305 1.26255 13.319C1.24083 13.3329 1.2226 13.3508 1.20905 13.3715C1.35294 13.408 1.56183 13.4075 1.67405 13.368C1.72467 13.3614 1.77302 13.3448 1.81559 13.3193C1.85816 13.2938 1.89388 13.26 1.92017 13.2205C1.94732 13.1642 1.96133 13.1035 1.96133 13.042C1.96133 12.9806 1.94732 12.9199 1.92017 12.8635C1.83461 12.703 1.43128 11.9335 1.30572 11.691C1.27802 11.6396 1.26341 11.5832 1.26294 11.526C1.26294 11.3785 1.4135 11.3265 1.49905 11.3265C1.60183 11.3265 1.70628 11.3975 1.70628 11.4845C1.70628 11.5405 1.67239 11.5735 1.62461 11.5735C1.5085 11.5735 1.51572 11.485 1.5385 11.429C1.46683 11.459 1.42461 11.51 1.43628 11.565C1.39112 11.5712 1.35002 11.592 1.32072 11.6235C1.34905 11.6565 1.3835 11.6805 1.43628 11.681C1.41294 11.766 1.47628 11.802 1.5385 11.8215C1.51905 11.7595 1.50628 11.687 1.62461 11.687C1.71072 11.687 1.7785 11.6735 1.81794 11.623L1.82794 11.9555C1.83239 12.0555 1.67905 12.0525 1.58183 12.023C1.6185 12.1375 1.69405 12.2 1.8685 12.184C1.8417 12.1933 1.81881 12.21 1.80306 12.2316C1.78731 12.2532 1.7795 12.2787 1.78072 12.3045C1.78072 12.3985 1.86461 12.502 1.92017 12.533L1.94794 11.56ZM1.92072 14.261C1.92072 14.261 2.05239 14.3595 2.09683 14.31C2.1685 14.23 1.87628 13.8305 1.87628 13.6895C1.87628 13.459 2.04794 13.395 2.25905 13.3625C2.40128 13.3405 2.63239 13.372 2.63239 13.372C2.5885 13.4245 2.56072 13.441 2.48739 13.444C2.53787 13.468 2.57998 13.5041 2.60901 13.5483C2.63805 13.5926 2.65287 13.6432 2.65183 13.6945C2.65183 13.8925 2.56072 13.9745 2.56072 14.199C2.56072 14.3235 2.67405 14.4815 2.67405 14.4815C2.47405 14.4635 2.37405 14.297 2.43072 14.163C2.41541 14.1606 2.39966 14.1614 2.38478 14.1655C2.3699 14.1696 2.35632 14.1768 2.34517 14.1865C2.33072 14.15 2.35405 14.1065 2.38461 14.07C2.35961 14.0585 2.34128 14.0655 2.30183 14.0725C2.30572 14.0345 2.33072 13.9945 2.39294 13.9565C2.21294 13.998 2.10239 13.8855 2.10239 13.7675C2.10239 13.6775 2.17183 13.6135 2.24016 13.6135C2.26239 13.6135 2.29461 13.622 2.31294 13.634C2.32572 13.61 2.31905 13.577 2.30572 13.5525C2.35572 13.564 2.38683 13.5905 2.36461 13.6465C2.38155 13.6468 2.39824 13.6503 2.41363 13.6566C2.42903 13.663 2.44279 13.6722 2.45405 13.6835C2.44343 13.6955 2.42976 13.7051 2.4142 13.7113C2.39863 13.7176 2.38163 13.7204 2.36461 13.7195C2.39239 13.7715 2.36128 13.801 2.31628 13.824C2.31628 13.824 2.34516 13.7195 2.27128 13.7195C2.23794 13.7195 2.20794 13.73 2.20794 13.7735C2.20794 13.811 2.24516 13.864 2.33072 13.861C2.41628 13.8575 2.48572 13.8075 2.48572 13.685C2.48572 13.5705 2.38405 13.514 2.25016 13.5105C2.12905 13.507 2.03794 13.566 2.03794 13.6785C2.03794 13.8275 2.27794 14.1685 2.27794 14.3015C2.27794 14.4015 2.1785 14.457 2.08072 14.457C1.95405 14.457 1.84739 14.344 1.84739 14.344L1.92072 14.261ZM1.89294 7.18855C1.89294 6.93855 2.14183 6.81055 2.33739 6.81055C2.60072 6.81055 2.74128 6.95255 2.74128 7.13805C2.74128 7.24355 2.71961 7.30955 2.66572 7.41005L2.06183 8.53905C2.0397 8.58624 2.03 8.63741 2.0335 8.68855C2.0335 8.79005 2.14294 8.87255 2.25739 8.87555C2.36128 8.87755 2.47516 8.78755 2.47516 8.68555C2.47516 8.56155 2.40405 8.50605 2.33016 8.50605C2.23961 8.50605 2.2035 8.53955 2.2035 8.59705C2.2035 8.63655 2.22516 8.65405 2.25572 8.65405C2.3335 8.65405 2.31183 8.56005 2.31183 8.56005C2.32209 8.56194 2.33177 8.56583 2.34018 8.57145C2.34859 8.57707 2.35553 8.58428 2.3605 8.59258C2.36548 8.60087 2.36838 8.61005 2.36899 8.61946C2.36961 8.62887 2.36792 8.63829 2.36405 8.64705C2.39318 8.65279 2.41947 8.66681 2.43905 8.68705C2.41896 8.70622 2.39276 8.71932 2.36405 8.72455C2.38239 8.77855 2.35794 8.80455 2.30572 8.81605C2.31476 8.79786 2.31728 8.77759 2.31294 8.75805C2.23017 8.77905 2.1035 8.74605 2.1035 8.61705C2.1035 8.48955 2.20183 8.38205 2.38683 8.40855C2.34239 8.38955 2.32072 8.35105 2.31628 8.30805C2.34961 8.32005 2.38683 8.32105 2.38683 8.32105C2.36516 8.28705 2.33516 8.25755 2.33628 8.19005C2.37072 8.20405 2.40239 8.23005 2.44628 8.21355C2.37739 8.09155 2.46183 7.92405 2.67739 7.88455C2.60439 7.95624 2.56274 8.04933 2.56016 8.14655C2.56016 8.43605 2.65016 8.48455 2.65016 8.68605C2.65016 8.77005 2.60183 8.86105 2.50683 8.92305V8.91955C2.56794 8.93455 2.60794 8.96205 2.63183 9.00005C2.48794 9.03705 2.2785 9.03605 2.16683 8.99655C2.11625 8.98985 2.06795 8.97314 2.02539 8.94764C1.98284 8.92214 1.94709 8.88847 1.92072 8.84905C1.89356 8.79289 1.87954 8.73229 1.87954 8.67105C1.87954 8.6098 1.89356 8.54921 1.92072 8.49305C2.00628 8.33205 2.40961 7.56255 2.53517 7.32005C2.56257 7.2685 2.57717 7.21219 2.57794 7.15505C2.57794 7.00705 2.42739 6.95505 2.34183 6.95505C2.23905 6.95505 2.13461 7.02555 2.13461 7.11255C2.13461 7.16855 2.1685 7.20205 2.21628 7.20205C2.33239 7.20205 2.32517 7.11305 2.30183 7.05755C2.3735 7.08655 2.41572 7.13855 2.40405 7.19355C2.44517 7.19855 2.48405 7.21555 2.51961 7.25255C2.49128 7.28455 2.45683 7.30855 2.40405 7.30955C2.42739 7.39505 2.36405 7.43105 2.30183 7.45055C2.32128 7.38855 2.33405 7.31655 2.21628 7.31655C2.13017 7.31655 2.06239 7.30305 2.02294 7.25305C2.02017 7.32005 2.01294 7.58555 2.01294 7.58555C2.0085 7.68505 2.16128 7.68255 2.2585 7.65255C2.22239 7.76755 2.14739 7.82955 1.97239 7.81355C1.99923 7.82293 2.02214 7.83965 2.03788 7.86135C2.05363 7.88305 2.06142 7.90865 2.06016 7.93455C2.06016 8.02805 1.97572 8.13205 1.92072 8.16255L1.89294 7.18855Z" fill="#FFCC4D"/>
<path d="M1.94794 7.18855C1.94794 6.93855 1.69905 6.81055 1.5035 6.81055C1.24016 6.81055 1.09961 6.95255 1.09961 7.13805C1.09961 7.24355 1.12128 7.30955 1.17516 7.41005L1.77905 8.53905C1.80016 8.57855 1.80683 8.62305 1.80683 8.68855C1.80683 8.79005 1.69739 8.87255 1.5835 8.87555C1.47905 8.87755 1.36572 8.78755 1.36572 8.68555C1.36572 8.56155 1.43683 8.50605 1.51072 8.50605C1.60128 8.50605 1.63739 8.53955 1.63739 8.59705C1.63739 8.63655 1.61572 8.65405 1.58516 8.65405C1.50739 8.65405 1.52905 8.56005 1.52905 8.56005C1.51874 8.56186 1.50901 8.5657 1.50054 8.5713C1.49208 8.5769 1.4851 8.58412 1.48011 8.59244C1.47511 8.60076 1.47223 8.60997 1.47166 8.61941C1.4711 8.62886 1.47286 8.63829 1.47683 8.64705C1.44771 8.65279 1.42141 8.66681 1.40183 8.68705C1.42192 8.70622 1.44813 8.71932 1.47683 8.72455C1.45905 8.77855 1.48294 8.80455 1.53516 8.81605C1.52613 8.79786 1.5236 8.77759 1.52794 8.75805C1.61072 8.77905 1.73739 8.74605 1.73739 8.61705C1.73739 8.48955 1.63905 8.38205 1.45461 8.40855C1.4985 8.38955 1.52072 8.35105 1.52461 8.30805C1.49128 8.32005 1.45461 8.32105 1.45461 8.32105C1.47572 8.28705 1.50572 8.25755 1.50461 8.19005C1.47016 8.20405 1.43905 8.23005 1.39461 8.21355C1.4635 8.09155 1.37905 7.92405 1.1635 7.88455C1.2365 7.95624 1.27814 8.04933 1.28072 8.14655C1.28072 8.43605 1.19128 8.48455 1.19128 8.68605C1.19128 8.77005 1.23961 8.86105 1.33461 8.92305V8.91955C1.27294 8.93455 1.23239 8.96205 1.20961 9.00005C1.3535 9.03705 1.56239 9.03605 1.67461 8.99655C1.72519 8.98985 1.77349 8.97314 1.81605 8.94764C1.8586 8.92214 1.89435 8.88847 1.92072 8.84905C1.94788 8.79289 1.9619 8.73229 1.9619 8.67105C1.9619 8.6098 1.94788 8.54921 1.92072 8.49305C1.83516 8.33205 1.43183 7.56255 1.30628 7.32005C1.27862 7.26875 1.26401 7.21256 1.2635 7.15555C1.2635 7.00755 1.41405 6.95555 1.49961 6.95555C1.60239 6.95555 1.70683 7.02605 1.70683 7.11305C1.70683 7.16905 1.67294 7.20255 1.62516 7.20255C1.50905 7.20255 1.51628 7.11355 1.53905 7.05805C1.46739 7.08705 1.42516 7.13905 1.43683 7.19405C1.39147 7.20002 1.35024 7.22107 1.32128 7.25305C1.34961 7.28505 1.38405 7.30905 1.43683 7.31005C1.4135 7.39555 1.47683 7.43155 1.53905 7.45105C1.51961 7.38905 1.50683 7.31705 1.62516 7.31705C1.71128 7.31705 1.77905 7.30355 1.8185 7.25355L1.82794 7.58505C1.83239 7.68455 1.67905 7.68205 1.58183 7.65205C1.6185 7.76705 1.69405 7.82905 1.8685 7.81355C1.84165 7.82293 1.81875 7.83965 1.803 7.86135C1.78726 7.88305 1.77946 7.90865 1.78072 7.93455C1.78072 8.02805 1.86461 8.13205 1.92016 8.16255L1.94794 7.18855Z" fill="#FFCC4D"/>
<path d="M1.94799 6.43782C1.94799 6.68732 1.6991 6.81582 1.50355 6.81582C1.24021 6.81582 1.09966 6.67382 1.09966 6.48782C1.09966 6.38282 1.12133 6.31682 1.17521 6.21582L1.7791 5.08682C1.80101 5.03957 1.81051 4.98841 1.80688 4.93732C1.80688 4.83632 1.69744 4.75332 1.58355 4.75082C1.4791 4.74882 1.36577 4.83832 1.36577 4.94082C1.36577 5.06532 1.43688 5.12032 1.51077 5.12032C1.60133 5.12032 1.63744 5.08682 1.63744 5.02932C1.63744 4.98932 1.61577 4.97232 1.58521 4.97232C1.50744 4.97232 1.5291 5.06632 1.5291 5.06632C1.51877 5.06445 1.50903 5.06054 1.50057 5.05489C1.4921 5.04924 1.48513 5.04197 1.48014 5.03362C1.47516 5.02526 1.47228 5.01602 1.47172 5.00655C1.47115 4.99708 1.47292 4.98761 1.47688 4.97882C1.44763 4.97367 1.42119 4.95975 1.40188 4.93932C1.42216 4.92046 1.4483 4.90756 1.47688 4.90232C1.4591 4.84832 1.48355 4.82232 1.53577 4.81082C1.52673 4.82901 1.52421 4.84928 1.52855 4.86882C1.61133 4.84782 1.73799 4.88182 1.73799 5.00982C1.73799 5.13732 1.63966 5.24482 1.45521 5.21832C1.4991 5.23732 1.52133 5.27582 1.52521 5.31882C1.50267 5.31156 1.47911 5.30718 1.45521 5.30582C1.47633 5.33982 1.50633 5.36932 1.50521 5.43682C1.47077 5.42282 1.43966 5.39682 1.39521 5.41332C1.4641 5.53532 1.37966 5.70282 1.1641 5.74282C1.2371 5.67092 1.27873 5.57769 1.28133 5.48032C1.28133 5.19132 1.19188 5.14232 1.19188 4.94132C1.19188 4.85732 1.24021 4.76632 1.33521 4.70432V4.70782C1.30913 4.70287 1.28448 4.69306 1.26286 4.67903C1.24123 4.66499 1.22311 4.64704 1.20966 4.62632C1.35355 4.58982 1.56244 4.59032 1.67466 4.63032C1.72533 4.63698 1.77371 4.65371 1.81628 4.67932C1.85885 4.70492 1.89455 4.73874 1.92077 4.77832C1.94796 4.83447 1.962 4.89507 1.962 4.95632C1.962 5.01758 1.94796 5.07817 1.92077 5.13432C1.83521 5.29532 1.43188 6.06482 1.30633 6.30682C1.27862 6.3581 1.26401 6.4143 1.26355 6.47132C1.26355 6.61982 1.4141 6.67132 1.49966 6.67132C1.60244 6.67132 1.70688 6.60082 1.70688 6.51332C1.70688 6.45782 1.67299 6.42382 1.62521 6.42382C1.5091 6.42382 1.51633 6.51232 1.5391 6.56832C1.46744 6.53932 1.42521 6.48732 1.43688 6.43232C1.39159 6.42616 1.35043 6.40515 1.32133 6.37332C1.34966 6.34132 1.3841 6.31682 1.43688 6.31632C1.41355 6.23132 1.47688 6.19482 1.5391 6.17482C1.51966 6.23732 1.50688 6.30982 1.62521 6.30982C1.71133 6.30982 1.7791 6.32282 1.81855 6.37332L1.82855 6.04032C1.83299 5.94082 1.67966 5.94382 1.58244 5.97332C1.6191 5.85832 1.69466 5.79632 1.8691 5.81182C1.84226 5.80244 1.81935 5.78572 1.80361 5.76402C1.78786 5.74232 1.78007 5.71672 1.78133 5.69082C1.78133 5.59732 1.86521 5.49332 1.92077 5.46282L1.94799 6.43782ZM1.94799 10.8098C1.94799 11.0593 1.6991 11.1873 1.50355 11.1873C1.24021 11.1873 1.09966 11.0458 1.09966 10.8603C1.09831 10.7653 1.12434 10.6716 1.17521 10.5883L1.7791 9.45932C1.80101 9.41207 1.81051 9.36091 1.80688 9.30982C1.80688 9.20832 1.69744 9.12582 1.58355 9.12332C1.4791 9.12082 1.36577 9.21082 1.36577 9.31282C1.36577 9.43682 1.43688 9.49232 1.51077 9.49232C1.60133 9.49232 1.63744 9.45882 1.63744 9.40132C1.63744 9.36182 1.61577 9.34482 1.58521 9.34482C1.50744 9.34482 1.5291 9.43882 1.5291 9.43882C1.51882 9.43687 1.50914 9.43291 1.50073 9.42724C1.49232 9.42157 1.48539 9.41432 1.48042 9.40599C1.47544 9.39765 1.47255 9.38845 1.47194 9.379C1.47133 9.36956 1.47302 9.36012 1.47688 9.35132C1.44758 9.346 1.42114 9.3319 1.40188 9.31132C1.42203 9.2923 1.44823 9.27938 1.47688 9.27432C1.4591 9.21982 1.48299 9.19382 1.53521 9.18232C1.52618 9.20051 1.52365 9.22078 1.52799 9.24032C1.61077 9.21932 1.73744 9.25282 1.73744 9.38132C1.73744 9.50882 1.6391 9.61582 1.45466 9.58982C1.49855 9.60932 1.52077 9.64732 1.52466 9.69082C1.49133 9.67932 1.45466 9.67732 1.45466 9.67732C1.47577 9.71132 1.50577 9.74132 1.50466 9.80832C1.47021 9.79432 1.4391 9.76832 1.39466 9.78482C1.46355 9.90632 1.3791 10.0748 1.16355 10.1138C1.23663 10.0422 1.27829 9.94906 1.28077 9.85182C1.28077 9.56332 1.19133 9.51382 1.19133 9.31282C1.19133 9.22832 1.23966 9.13732 1.33466 9.07582V9.07882C1.27299 9.06432 1.23244 9.03682 1.20966 8.99832C1.35355 8.96182 1.56244 8.96232 1.67466 9.00232C1.72524 9.00902 1.77354 9.02572 1.8161 9.05123C1.85865 9.07673 1.8944 9.1104 1.92077 9.14982C1.94793 9.20598 1.96195 9.26657 1.96195 9.32782C1.96195 9.38907 1.94793 9.44966 1.92077 9.50582C1.83521 9.66682 1.43188 10.4363 1.30633 10.6788C1.27855 10.7301 1.26393 10.7863 1.26355 10.8433C1.26355 10.9913 1.4141 11.0428 1.49966 11.0428C1.60244 11.0428 1.70688 10.9723 1.70688 10.8848C1.70688 10.8303 1.67299 10.7963 1.62521 10.7963C1.5091 10.7963 1.51633 10.8848 1.5391 10.9403C1.46744 10.9113 1.42521 10.8588 1.43688 10.8043C1.39155 10.7986 1.35028 10.7777 1.32133 10.7458C1.3345 10.729 1.35174 10.7151 1.37176 10.7051C1.39177 10.6952 1.41404 10.6894 1.43688 10.6883C1.41355 10.6033 1.47688 10.5678 1.5391 10.5478C1.51966 10.6103 1.50688 10.6823 1.62521 10.6823C1.71133 10.6823 1.7791 10.6953 1.81855 10.7463L1.82855 10.4133C1.83299 10.3143 1.67966 10.3168 1.58244 10.3463C1.6191 10.2318 1.69466 10.1698 1.8691 10.1853C1.84226 10.1759 1.81935 10.1592 1.80361 10.1375C1.78786 10.1158 1.78007 10.0902 1.78133 10.0643C1.78133 9.97082 1.86521 9.86732 1.92077 9.83632L1.94799 10.8098Z" fill="#FFCC4D"/>
<path d="M1.89279 10.8106C1.89279 11.0601 2.14168 11.1881 2.33724 11.1881C2.60057 11.1881 2.74112 11.0466 2.74112 10.8611C2.74247 10.7661 2.71644 10.6723 2.66557 10.5891L2.06168 9.46008C2.03955 9.41288 2.02985 9.36171 2.03335 9.31058C2.03335 9.20908 2.14279 9.12658 2.25724 9.12408C2.36112 9.12158 2.47501 9.21158 2.47501 9.31358C2.47501 9.43758 2.4039 9.49308 2.33001 9.49308C2.23946 9.49308 2.20335 9.45958 2.20335 9.40208C2.20335 9.36258 2.22501 9.34558 2.25557 9.34558C2.33335 9.34558 2.31168 9.43958 2.31168 9.43958C2.32196 9.43762 2.33164 9.43367 2.34005 9.428C2.34846 9.42233 2.35539 9.41507 2.36037 9.40674C2.36534 9.39841 2.36823 9.3892 2.36884 9.37976C2.36945 9.37032 2.36777 9.36087 2.3639 9.35208C2.39321 9.34676 2.41965 9.33266 2.4389 9.31208C2.41876 9.29306 2.39255 9.28013 2.3639 9.27508C2.38224 9.22058 2.35779 9.19458 2.30557 9.18308C2.31612 9.20408 2.31612 9.22308 2.31279 9.24108C2.23001 9.22008 2.10335 9.25358 2.10335 9.38208C2.10335 9.50958 2.20168 9.61658 2.38668 9.59058C2.34224 9.61008 2.32057 9.64808 2.31612 9.69158C2.34946 9.68008 2.38668 9.67808 2.38668 9.67808C2.36501 9.71208 2.33501 9.74208 2.33612 9.80908C2.37057 9.79508 2.40224 9.76908 2.44612 9.78558C2.37724 9.90708 2.46168 10.0756 2.67724 10.1146C2.60415 10.0429 2.56249 9.94982 2.56001 9.85258C2.56001 9.56408 2.65001 9.51458 2.65001 9.31358C2.64861 9.26669 2.63489 9.22078 2.60998 9.17958C2.58507 9.13839 2.54967 9.10309 2.50668 9.07658V9.07958C2.53286 9.07484 2.55762 9.06517 2.57936 9.05121C2.60109 9.03725 2.6193 9.01932 2.63279 8.99858C2.4889 8.96208 2.27946 8.96258 2.16779 9.00258C2.11721 9.00928 2.06891 9.02598 2.02635 9.05148C1.9838 9.07699 1.94805 9.11066 1.92168 9.15008C1.89452 9.20624 1.8805 9.26683 1.8805 9.32808C1.8805 9.38933 1.89452 9.44992 1.92168 9.50608C2.00724 9.66708 2.41057 10.4366 2.53612 10.6791C2.56279 10.7301 2.5789 10.7841 2.5789 10.8436C2.5789 10.9916 2.42835 11.0431 2.34279 11.0431C2.24001 11.0431 2.13557 10.9726 2.13557 10.8851C2.13557 10.8306 2.16946 10.7966 2.21724 10.7966C2.33335 10.7966 2.32612 10.8851 2.30279 10.9406C2.37446 10.9116 2.41668 10.8591 2.40501 10.8046C2.45042 10.7991 2.49176 10.7781 2.52057 10.7461C2.5074 10.7292 2.49016 10.7153 2.47014 10.7054C2.45012 10.6954 2.42785 10.6897 2.40501 10.6886C2.42835 10.6036 2.36501 10.5681 2.30279 10.5481C2.32224 10.6106 2.33501 10.6826 2.21724 10.6826C2.13112 10.6826 2.06335 10.6956 2.0239 10.7466C2.02112 10.6796 2.0139 10.4136 2.0139 10.4136C2.00946 10.3146 2.16224 10.3171 2.25946 10.3466C2.22224 10.2321 2.14724 10.1701 1.97224 10.1856C1.99908 10.1762 2.02199 10.1595 2.03773 10.1378C2.05348 10.1161 2.06127 10.0905 2.06001 10.0646C2.06001 9.97108 1.97557 9.86758 1.92057 9.83658L1.89279 10.8106ZM1.92057 3.73858C1.92057 3.73858 2.05224 3.63908 2.09668 3.68858C2.16835 3.76908 1.87612 4.16858 1.87612 4.30958C1.87612 4.54058 2.04779 4.60308 2.2589 4.63608C2.40112 4.65858 2.63224 4.62708 2.63224 4.62708C2.58779 4.57458 2.56001 4.55908 2.48668 4.55508C2.5372 4.53142 2.57937 4.49552 2.60843 4.45143C2.63749 4.40734 2.65227 4.35683 2.65112 4.30558C2.65112 4.10658 2.56001 4.02458 2.56001 3.80058C2.56001 3.67608 2.67335 3.51758 2.67335 3.51758C2.47335 3.53608 2.37335 3.70258 2.43001 3.83608C2.41479 3.83861 2.39911 3.8378 2.38431 3.83371C2.36951 3.82962 2.35603 3.82237 2.34501 3.81258C2.33057 3.84958 2.3539 3.89258 2.38446 3.92958C2.35946 3.94158 2.34112 3.93408 2.30168 3.92658C2.30557 3.96508 2.33057 4.00508 2.39279 4.04308C2.21224 4.00108 2.10168 4.11408 2.10168 4.23258C2.10168 4.32208 2.17112 4.38558 2.23946 4.38558C2.26168 4.38558 2.2939 4.37758 2.31224 4.36508C2.32501 4.38958 2.31835 4.42258 2.30501 4.44708C2.35501 4.43558 2.38612 4.40858 2.3639 4.35308C2.39797 4.35183 2.43011 4.33853 2.45335 4.31608C2.4426 4.30404 2.42885 4.29446 2.41321 4.28812C2.39757 4.28178 2.38048 4.27885 2.36335 4.27958C2.39112 4.22758 2.36001 4.19858 2.31501 4.17558C2.31501 4.17558 2.3439 4.27958 2.27001 4.27958C2.23668 4.27958 2.20668 4.26958 2.20668 4.22608C2.20668 4.18808 2.2439 4.13508 2.32946 4.13858C2.41501 4.14158 2.48446 4.19158 2.48446 4.31508C2.48446 4.42858 2.38279 4.48458 2.2489 4.48858C2.12835 4.49158 2.03724 4.43258 2.03724 4.32058C2.03724 4.17108 2.27724 3.83108 2.27724 3.69758C2.27724 3.59758 2.17779 3.54158 2.08001 3.54158C1.95335 3.54158 1.84668 3.65458 1.84668 3.65458L1.92057 3.73858Z" fill="#FFCC4D"/>
<path d="M1.92081 3.73858C1.92081 3.73858 1.78915 3.63908 1.7447 3.68858C1.67248 3.76958 1.96526 4.16908 1.96526 4.31008C1.96526 4.54108 1.79359 4.60358 1.58248 4.63658C1.44026 4.65858 1.2097 4.62708 1.2097 4.62708C1.25304 4.57458 1.28137 4.55908 1.3547 4.55508C1.30403 4.53153 1.26171 4.49567 1.23255 4.45157C1.20338 4.40747 1.18854 4.35689 1.1897 4.30558C1.1897 4.10658 1.28081 4.02458 1.28081 3.80058C1.28081 3.67608 1.16748 3.51758 1.16748 3.51758C1.36748 3.53608 1.46748 3.70258 1.41081 3.83608C1.42612 3.83853 1.44186 3.83768 1.45673 3.83359C1.4716 3.82951 1.48519 3.8223 1.49637 3.81258C1.51081 3.84958 1.48804 3.89258 1.45692 3.92958C1.48137 3.94158 1.4997 3.93408 1.5397 3.92658C1.53581 3.96508 1.51026 4.00508 1.44859 4.04308C1.62859 4.00108 1.73915 4.11408 1.73915 4.23258C1.73915 4.32208 1.6697 4.38558 1.60137 4.38558C1.57545 4.38507 1.55021 4.37796 1.52859 4.36508C1.51637 4.39008 1.52304 4.42258 1.53581 4.44708C1.48637 4.43558 1.45526 4.40858 1.47748 4.35358C1.46059 4.35304 1.44399 4.34949 1.42864 4.34314C1.41329 4.33679 1.39949 4.32776 1.38804 4.31658C1.39861 4.30446 1.41224 4.29478 1.42779 4.28835C1.44334 4.28192 1.46038 4.27891 1.47748 4.27958C1.4497 4.22758 1.48081 4.19858 1.52581 4.17558C1.52581 4.17558 1.49692 4.27958 1.57081 4.27958C1.60415 4.27958 1.63415 4.26958 1.63415 4.22608C1.63415 4.18808 1.59692 4.13508 1.51137 4.13858C1.42526 4.14158 1.35581 4.19158 1.35581 4.31458C1.35581 4.42808 1.45748 4.48408 1.59137 4.48808C1.71248 4.49108 1.80359 4.43258 1.80359 4.32008C1.80359 4.17058 1.56359 3.83058 1.56359 3.69708C1.56359 3.59708 1.66304 3.54108 1.76081 3.54108C1.88748 3.54108 1.99415 3.65408 1.99415 3.65408L1.92081 3.73858ZM1.89304 6.43858C1.89304 6.68808 2.14192 6.81658 2.33748 6.81658C2.60081 6.81658 2.74137 6.67458 2.74137 6.48858C2.74137 6.38358 2.7197 6.31758 2.66581 6.21658L2.06192 5.08758C2.04018 5.04046 2.03068 4.9895 2.03415 4.93858C2.03415 4.83758 2.14359 4.75458 2.25804 4.75208C2.36192 4.75008 2.47581 4.83958 2.47581 4.94208C2.47581 5.06658 2.4047 5.12158 2.33081 5.12158C2.24026 5.12158 2.20415 5.08808 2.20415 5.03058C2.20415 4.99058 2.22581 4.97358 2.25637 4.97358C2.33415 4.97358 2.31248 5.06758 2.31248 5.06758C2.32276 5.06562 2.33244 5.06167 2.34085 5.056C2.34926 5.05033 2.35619 5.04307 2.36117 5.03474C2.36614 5.02641 2.36903 5.0172 2.36964 5.00776C2.37025 4.99832 2.36857 4.98887 2.3647 4.98008C2.39374 4.97451 2.41992 4.96044 2.43915 4.94008C2.41872 4.92113 2.39237 4.90822 2.36359 4.90308C2.38192 4.84908 2.35748 4.82308 2.30526 4.81158C2.31581 4.83258 2.31581 4.85158 2.31248 4.86958C2.2297 4.84858 2.10304 4.88208 2.10304 5.01058C2.10304 5.13808 2.20137 5.24558 2.38637 5.21908C2.34192 5.23808 2.32026 5.27658 2.31581 5.31958C2.33854 5.31229 2.36229 5.30792 2.38637 5.30658C2.3647 5.34058 2.3347 5.37008 2.33581 5.43758C2.37026 5.42358 2.40192 5.39758 2.44581 5.41408C2.37692 5.53608 2.46137 5.70358 2.67692 5.74358C2.60393 5.67168 2.5623 5.57844 2.5597 5.48108C2.5597 5.19208 2.6497 5.14308 2.6497 4.94208C2.64817 4.89522 2.63439 4.84934 2.60949 4.80817C2.58459 4.76699 2.54926 4.73168 2.50637 4.70508V4.70858C2.53249 4.70355 2.55718 4.69371 2.57888 4.67968C2.60059 4.66566 2.61883 4.64775 2.63248 4.62708C2.48804 4.59108 2.27859 4.59158 2.16637 4.63158C2.11579 4.63808 2.06747 4.6547 2.02498 4.68023C1.98248 4.70575 1.94689 4.73953 1.92081 4.77908C1.89362 4.83523 1.87959 4.89582 1.87959 4.95708C1.87959 5.01833 1.89362 5.07893 1.92081 5.13508C2.00637 5.29608 2.4097 6.06558 2.53526 6.30758C2.56258 6.35898 2.57718 6.4151 2.57804 6.47208C2.57804 6.62058 2.42748 6.67208 2.34192 6.67208C2.23915 6.67208 2.1347 6.60158 2.1347 6.51408C2.1347 6.45858 2.16859 6.42458 2.21637 6.42458C2.33248 6.42458 2.32526 6.51308 2.30192 6.56908C2.37359 6.54008 2.41581 6.48808 2.40415 6.43308C2.44952 6.42715 2.49077 6.40609 2.5197 6.37408C2.49137 6.34208 2.45692 6.31758 2.40415 6.31708C2.42748 6.23208 2.36415 6.19558 2.30192 6.17558C2.32137 6.23808 2.33415 6.31058 2.21637 6.31058C2.13026 6.31058 2.06248 6.32358 2.02304 6.37408C2.02026 6.30708 2.01304 6.04108 2.01304 6.04108C2.00859 5.94158 2.16137 5.94458 2.25859 5.97408C2.22248 5.86008 2.14748 5.79808 1.97248 5.81358C1.99933 5.8042 2.02223 5.78748 2.03798 5.76577C2.05372 5.74407 2.06151 5.71847 2.06026 5.69258C2.06026 5.59908 1.97581 5.49508 1.92081 5.46458L1.89304 6.43858Z" fill="#FFCC4D"/>
</g>
<defs>
<clipPath id="clip0_2267_45867">
<rect width="20" height="18" fill="white"/>
</clipPath>
</defs>
</svg>
